<svg xmlns="http://www.w3.org/2000/svg" xmlns:xlink="http://www.w3.org/1999/xlink" fill="none" version="1.1" width="159.211669921875" height="39.55572509765625" viewBox="0 0 159.211669921875 39.55572509765625"><defs><clipPath id="master_svg0_0_375"><rect x="0" y="0" width="43.51128387451172" height="39.55571365356445" rx="0"/></clipPath></defs><g><g clip-path="url(#master_svg0_0_375)"><g><path d="M35.7688463968277,2.28085C35.9994463968277,2.36206,36.2003463968277,2.51062,36.3455463968277,2.7073C36.4908463968277,2.90396,36.5739463968277,3.13972,36.5837463968277,3.38403C36.7089463968277,4.68878,36.7624463968277,5.99942,36.743746396827696,7.31003C36.7299463968277,7.91128,36.7160463968277,8.51251,36.6761463968277,9.11375C36.4499463968277,9.01998,36.236246396827696,8.9262,36.0086463968277,8.83795C35.4350463968277,8.6118,34.873846396827695,8.39806,34.298746396827696,8.19672C34.3125463968277,7.89059,34.3262463968277,7.59686,34.3262463968277,7.28935C34.3388463968277,6.3144,34.3125463968277,5.32567,34.2325463968277,4.32451C33.297646396827695,4.03078,32.32264639682769,3.76327,31.336646396827696,3.52332C30.095546396827697,3.22959,28.854446396827697,2.98827,27.596946396827697,2.81453C26.889546396827697,2.72213,26.208246396827697,2.64076,25.554546396827696,2.57457C24.9009463968277,2.50838,24.2045463968277,2.46838,23.4971463968277,2.43667C22.9454463968277,2.42288,22.4284463968277,2.41047,21.868446396827697,2.41047C21.868446396827697,2.41047,21.0535463968277,2.42288,21.0535463968277,2.42288C20.8123463968277,2.42288,20.5322463968277,2.43667,20.238646396827697,2.43667C19.531146396827697,2.46426,18.849946396827697,2.51665,18.181046396827696,2.57457C17.5123463968277,2.63249,16.8462463968277,2.72213,16.138846396827695,2.81453C14.897746396827698,2.98827,13.641446396827698,3.22821,12.399046396827698,3.52332C11.410246396827699,3.76327,10.449116396827698,4.03078,9.503136396827697,4.32451C9.340416396827697,6.51969,9.398676396827698,8.72565,9.676916396827698,10.9092C9.824586396827698,12.1307,10.038626396827699,13.3432,10.318146396827698,14.5414C10.478106396827698,15.2226,10.665646396827698,15.9039,10.869746396827697,16.5575C10.869746396827697,16.5575,10.883546396827697,16.6113,10.883546396827697,16.6113C10.883546396827697,16.6113,10.895946396827698,16.6651,10.895946396827698,16.6651C10.895946396827698,16.6651,10.909746396827698,16.7188,10.909746396827698,16.7188C10.909746396827698,16.7188,10.935946396827697,16.7713,10.935946396827697,16.7713C10.935946396827697,16.7713,10.949746396827697,16.8251,10.949746396827697,16.8251C10.949746396827697,16.8251,10.963446396827697,16.8788,10.963446396827697,16.8788C10.963446396827697,16.8788,10.977246396827697,16.9326,10.977246396827697,16.9326C10.977246396827697,16.9326,11.029646396827697,17.0787,11.029646396827697,17.0787C11.029646396827697,17.0787,11.029646396827697,17.0926,11.029646396827697,17.0926C11.029646396827697,17.0926,11.043446396827697,17.145,11.043446396827697,17.145C11.043446396827697,17.145,11.137246396827697,17.3987,11.137246396827697,17.3987C11.137246396827697,17.3987,11.149646396827698,17.4525,11.149646396827698,17.4525C11.149646396827698,17.4525,11.231046396827697,17.6662,11.231046396827697,17.6662C11.231046396827697,17.6662,11.243446396827698,17.7063,11.243446396827698,17.7063C11.655946396827698,18.9022,12.133246396827698,20.0746,12.673446396827698,21.2186C12.673446396827698,21.2186,12.699646396827697,21.2585,12.699646396827697,21.2585C12.699646396827697,21.2585,12.713446396827697,21.2999,12.713446396827697,21.2999C12.713446396827697,21.2999,12.725846396827698,21.3261,12.725846396827698,21.3261C12.725846396827698,21.3261,12.753446396827698,21.366,12.753446396827698,21.366C12.753446396827698,21.366,12.765846396827698,21.4061,12.765846396827698,21.4061C12.765846396827698,21.4061,12.779646396827697,21.446,12.779646396827697,21.446C12.779646396827697,21.446,12.805846396827699,21.4723,12.805846396827699,21.4723C13.007146396827698,21.8859,13.219546396827697,22.2997,13.434646396827699,22.7134C13.594646396827697,22.9809,13.740746396827697,23.2649,13.888346396827698,23.5146C14.062046396827698,23.8225,14.222546396827697,24.0895,14.369646396827697,24.3158C14.823246396827697,25.0507,15.303146396827698,25.772,15.812046396827698,26.4671C16.320846396827697,27.1619,16.839446396827697,27.8294,17.414346396827696,28.4969C17.628646396827698,28.7507,17.8689463968277,29.0176,18.1355463968277,29.2981C18.389346396827698,29.5738,18.629246396827696,29.8496,18.8568463968277,30.0855C19.444246396827698,30.6868,20.0578463968277,31.2617,20.672946396827697,31.8215C20.672946396827697,31.8215,20.9266463968277,32.0354,20.9266463968277,32.0354C20.7529463968277,32.1733,20.5791463968277,32.3112,20.393046396827696,32.4491C19.9118463968277,32.809,19.418046396827698,33.1565,18.922946396827697,33.504C16.254646396827695,31.1118,13.958946396827697,28.3342,12.112146396827697,25.2632C12.112146396827697,25.2632,12.112146396827697,25.2493,12.112146396827697,25.2493C12.112146396827697,25.2493,12.098346396827697,25.2369,12.098346396827697,25.2369C12.098346396827697,25.2369,12.084646396827697,25.2231,12.084646396827697,25.2231C11.978446396827698,25.0493,11.884646396827698,24.8756,11.790846396827698,24.7295C11.630846396827698,24.4357,11.457146396827698,24.1406,11.310946396827697,23.8607C10.869746396827697,23.0596,10.468466396827697,22.2321,10.082346396827697,21.3633C9.696216396827698,20.4945,9.361136396827698,19.641,9.053616396827698,18.786C8.624056396827697,17.5775,8.258516396827698,16.347,7.958646396827698,15.1C7.051376396827698,11.2631,6.780766396827698,7.30318,7.157496396827698,3.37853C7.168796396827697,3.13384,7.253846396827698,2.89829,7.401526396827697,2.70287C7.549196396827698,2.50744,7.752586396827698,2.36129,7.984896396827698,2.28361C9.253576396827699,1.85612,10.549846396827698,1.48241,11.858446396827699,1.16111C13.140946396827697,0.867383,14.461946396827697,0.609514,15.812046396827698,0.413697C16.5014463968277,0.319926,17.226846396827696,0.239946,17.9881463968277,0.173754C18.723046396827698,0.106184,19.444246396827698,0.0537809,20.151846396827697,0.0262012C20.4193463968277,0.0262012,20.703346396827698,0.0124146,21.006646396827698,0.0124146C21.006646396827698,0.0124146,21.875446396827698,0,21.875446396827698,0C21.875446396827698,0,22.742846396827698,0.0124146,22.742846396827698,0.0124146C23.0504463968277,0.0124146,23.344046396827697,0.0262012,23.5978463968277,0.0262012C24.319046396827698,0.0537809,25.040246396827698,0.106184,25.775146396827697,0.173754C26.536346396827696,0.239946,27.2575463968277,0.319926,27.9388463968277,0.413697C29.299946396827696,0.61365,30.622446396827698,0.867383,31.904946396827697,1.16111C33.2010463968277,1.48241,34.4959463968277,1.85061,35.7784463968277,2.28361C35.7784463968277,2.28361,35.7688463968277,2.28085,35.7688463968277,2.28085C35.7688463968277,2.28085,35.7688463968277,2.28085,35.7688463968277,2.28085ZM27.941546396827697,26.4684C28.422846396827698,25.7872,28.9069463968277,25.0894,29.343946396827697,24.371C29.494946396827697,24.1,29.7424463968277,23.8958,30.037046396827698,23.7992C30.331746396827697,23.7026,30.652046396827696,23.7206,30.934046396827696,23.8497C33.2547463968277,24.9589,35.3615463968277,26.4692,37.157446396827694,28.3108C37.3675463968277,28.5043,37.502746396827696,28.7659,37.539346396827696,29.0493C37.5757463968277,29.3327,37.5114463968277,29.62,37.3573463968277,29.8606C36.9837463968277,30.4481,36.569946396827696,31.0618,36.1562463968277,31.663C35.742646396827695,32.2643,35.2874463968277,32.8517,34.847546396827696,33.413C34.5263463968277,33.8266,34.178846396827694,34.2541,33.8050463968277,34.6816C33.485146396827695,35.0553,33.1239463968277,35.469,32.7239463968277,35.9103C32.1627463968277,36.5253,31.6207463968277,37.0853,31.069146396827698,37.6327C31.069146396827698,37.6327,31.055346396827698,37.6327,31.055346396827698,37.6327C30.521746396827698,38.1677,29.952246396827697,38.689,29.359246396827697,39.2089C29.1842463968277,39.3793,28.962246396827698,39.4933,28.722046396827697,39.5363C28.4815463968277,39.5794,28.233746396827698,39.5493,28.0105463968277,39.4502C26.252746396827696,38.6432,24.560046396827698,37.7007,22.9483463968277,36.6314C23.162046396827698,36.4716,23.375746396827697,36.3116,23.589546396827696,36.1379C24.043146396827698,35.7766,24.498246396827696,35.4167,24.924346396827698,35.0347C26.0136463968277,35.727,27.142146396827698,36.3555,28.304346396827697,36.917C28.664246396827696,36.5832,29.011746396827697,36.2495,29.373046396827696,35.902C29.9328463968277,35.3504,30.4541463968277,34.8209,30.935446396827697,34.2858C31.255246396827697,33.9521,31.589046396827698,33.5523,31.964046396827698,33.1248C32.2840463968277,32.7372,32.6177463968277,32.336,32.939146396827695,31.9098C33.3790463968277,31.3748,33.7802463968277,30.8274,34.1676463968277,30.2661C34.3814463968277,29.9902,34.5814463968277,29.6787,34.7814463968277,29.3849C34.180346396827694,28.8086,33.5372463968277,28.2776,32.8576463968277,27.7963C32.2140463968277,27.3295,31.540646396827697,26.9053,30.8416463968277,26.5263C30.534146396827698,26.9938,30.214146396827697,27.4488,29.892946396827696,27.8887C29.332946396827698,28.6637,28.7579463968277,29.3849,28.1705463968277,30.0799C27.902946396827698,30.3861,27.6492463968277,30.6674,27.409446396827697,30.9349C27.3017463968277,31.0728,27.181846396827698,31.1887,27.061846396827697,31.321C27.061846396827697,31.321,27.047946396827697,31.3347,27.047946396827697,31.3347C27.047946396827697,31.3347,27.035546396827698,31.3487,27.035546396827698,31.3487C27.035546396827698,31.3487,27.021846396827698,31.3611,27.021846396827698,31.3611C27.021846396827698,31.3611,27.008046396827698,31.3748,27.008046396827698,31.3748C27.008046396827698,31.3748,26.9956463968277,31.3886,26.9956463968277,31.3886C26.9956463968277,31.3886,26.9818463968277,31.4023,26.9818463968277,31.4023C26.9818463968277,31.4023,26.9679463968277,31.4147,26.9679463968277,31.4147C26.9679463968277,31.4147,26.941846396827696,31.4424,26.941846396827696,31.4424C26.941846396827696,31.4424,26.941846396827696,31.4548,26.941846396827696,31.4548C25.666546396827698,32.798,24.296446396827697,34.0478,22.842046396827698,35.1945C20.644346396827697,36.8822,18.260046396827697,38.3118,15.736246396827697,39.4557C15.506746396827698,39.5585,15.251146396827698,39.5881,15.004346396827698,39.5402C14.757546396827697,39.4923,14.531546396827698,39.3693,14.357246396827698,39.1882C13.768346396827697,38.6807,13.220946396827697,38.1594,12.673446396827698,37.6381C12.121846396827697,37.1045,11.578546396827697,36.535,11.018646396827698,35.9159C10.604946396827698,35.4746,10.245006396827698,35.0609,9.923696396827697,34.6872C9.563786396827698,34.2597,9.216316396827697,33.8322,8.882596396827697,33.4184C8.441316396827698,32.8448,8.013846396827699,32.2697,7.586356396827698,31.6685C7.1588663968276975,31.0672,6.758966396827698,30.4536,6.385256396827698,29.8662C6.090156396827698,29.3986,5.783986396827697,28.9008,5.476456396827698,28.3838C5.200656396827697,27.8763,4.915206396827697,27.3688,4.649056396827698,26.8669C4.302946396827698,26.2257,3.981656396827698,25.5706,3.6741463968276977,24.917C3.3666363968276976,24.2633,3.100486396827698,23.607,2.8205563968276977,22.9257C2.313086396827698,21.6847,1.8718163968276977,20.4159,1.4843243968276978,19.1198C1.0968283968276977,17.8235,0.7769033968276977,16.5162,0.5190315968276977,15.1937C0.4688320968276978,14.9502,0.49591677682769775,14.697,0.5965323968276978,14.4695C0.6971473968276978,14.2421,0.8662503968276978,14.0517,1.0802563968276977,13.925C2.6351563968276976,12.8198,4.273756396827698,11.8373,5.981186396827698,10.9864C6.047376396827698,11.6277,6.128726396827698,12.2551,6.234906396827697,12.8825C6.261106396827698,13.0963,6.301096396827698,13.31,6.341086396827698,13.5238C5.207586396827698,14.1166,4.1107263968276975,14.7769,3.056356396827698,15.5012C3.270096396827698,16.5024,3.5238363968276976,17.4773,3.8037563968276977,18.4261C4.165056396827698,19.6548,4.592596396827698,20.8558,5.060066396827698,22.0114C5.313806396827697,22.6389,5.579936396827698,23.2663,5.873656396827697,23.8937C6.167386396827697,24.5213,6.462466396827698,25.1349,6.782396396827698,25.7236C7.036126396827698,26.2187,7.303686396827698,26.689,7.571196396827697,27.1662C7.837346396827698,27.6074,8.122796396827699,28.0748,8.424786396827699,28.5686C8.799876396827697,29.1561,9.173546396827698,29.731,9.561036396827697,30.2647C9.948546396827698,30.7984,10.362256396827698,31.3679,10.789746396827697,31.9085C11.123446396827697,32.3346,11.443446396827698,32.7358,11.777146396827698,33.1234C12.138446396827698,33.5509,12.485946396827698,33.9507,12.792046396827697,34.2845C13.287146396827698,34.8195,13.807046396827698,35.3532,14.368246396827697,35.9006C14.715746396827697,36.2481,15.077046396827697,36.5818,15.423146396827697,36.9032C17.432646396827696,35.9364,19.338946396827698,34.7685,21.1128463968277,33.4171C23.712646396827697,31.4456,26.011646396827697,29.1062,27.9374463968277,26.4725C27.9374463968277,26.4725,27.941546396827697,26.4684,27.941546396827697,26.4684C27.941546396827697,26.4684,27.941546396827697,26.4684,27.941546396827697,26.4684ZM42.6471463968277,13.9195C42.8605463968277,14.0476,43.0295463968277,14.2376,43.1321463968277,14.4643C43.2346463968277,14.691,43.2656463968277,14.9435,43.220846396827696,15.1881C42.9533463968277,16.5106,42.6333463968277,17.8193,42.2457463968277,19.1142C41.8583463968277,20.4091,41.4184463968277,21.6791,40.923546396827696,22.9201C40.8733463968277,23.044,40.8007463968277,23.1576,40.7096463968277,23.2552C40.5000463968277,23.4983,40.2033463968277,23.6489,39.883746396827696,23.6747C39.5638463968277,23.7004,39.246946396827695,23.5994,39.0011463968277,23.3932C38.0986463968277,22.6077,37.143546396827695,21.8847,36.1424463968277,21.2296C35.158746396827695,20.586,34.132246396827696,20.0106,33.0700463968277,19.5072C32.7913463968277,19.3815,32.5698463968277,19.1562,32.4490463968277,18.8755C32.3280463968277,18.5949,32.3164463968277,18.2791,32.4165463968277,17.9903C32.815846396827695,16.8664,33.1502463968277,15.7204,33.4176463968277,14.558C33.5375463968277,14.1043,33.6312463968277,13.6493,33.7250463968277,13.179C34.0326463968277,13.299,34.3262463968277,13.4203,34.6338463968277,13.5527C35.0875463968277,13.7541,35.541246396827695,13.9664,35.9948463968277,14.1815C35.928646396827695,14.5015,35.856946396827695,14.809,35.7812463968277,15.1165C35.568846396827695,16.0114,35.3275463968277,16.9092,35.047646396827695,17.7877C35.874946396827696,18.2152,36.6898463968277,18.695,37.4773463968277,19.2025C38.0785463968277,19.6037,38.6798463968277,20.0298,39.2547463968277,20.4711C39.4947463968277,19.8038,39.722346396827696,19.1225,39.922246396827695,18.4288C40.2159463968277,17.4801,40.4559463968277,16.4982,40.6835463968277,15.5041C38.9308463968277,14.3056,37.0655463968277,13.2812,35.1137463968277,12.4454C33.9116463968277,11.9259,32.681046396827696,11.4751,31.427646396827697,11.0954C30.282446396827698,10.7495,29.118546396827696,10.4687,27.941546396827697,10.2542C27.1142463968277,10.108,26.2592463968277,9.98803,25.3904463968277,9.89425C24.5216463968277,9.80048,23.668146396827698,9.74671,22.813146396827698,9.7205C22.813146396827698,9.7205,22.333346396827697,9.70672,22.333346396827697,9.70672C22.333346396827697,9.70672,21.398346396827698,9.70672,21.398346396827698,9.70672C21.398346396827698,9.70672,20.930846396827697,9.7205,20.930846396827697,9.7205C20.075846396827696,9.74671,19.2071463968277,9.80048,18.3521463968277,9.89425C17.4970463968277,9.98803,16.6298463968277,10.108,15.788546396827698,10.2542C14.626146396827698,10.4679,13.464946396827697,10.7616,12.302446396827698,11.0954C11.861146396827698,11.2332,11.421346396827698,11.3712,10.980046396827698,11.5229C10.940046396827698,11.2691,10.900046396827697,11.0292,10.873846396827698,10.7754C10.793846396827698,10.2018,10.735946396827698,9.64052,10.700146396827698,9.06548C14.303546396827699,7.87414,18.0747463968277,7.26887,21.869946396827697,7.2728C26.5643463968277,7.27923,31.2132463968277,8.19523,35.559246396827696,9.97011C38.0655463968277,11.0145,40.4448463968277,12.3409,42.651246396827695,13.9237C42.651246396827695,13.9237,42.6471463968277,13.9195,42.6471463968277,13.9195C42.6471463968277,13.9195,42.6471463968277,13.9195,42.6471463968277,13.9195ZM20.395846396827697,24.4839C20.195846396827697,24.2303,20.022046396827697,24.0027,19.862046396827697,23.8028C18.5913463968277,22.063,17.5122463968277,20.1909,16.643646396827698,18.2192C16.523646396827697,17.9531,16.4022463968277,17.6856,16.2960463968277,17.4181C16.189946396827697,17.1506,16.1085463968277,16.9243,16.020246396827698,16.6706C15.982046396827698,16.5824,15.955246396827699,16.4897,15.940246396827698,16.3947C15.911846396827698,16.2378,15.914846396827699,16.0766,15.949346396827698,15.9208C15.983846396827698,15.7649,16.0489463968277,15.6175,16.140946396827697,15.4871C16.233046396827696,15.3566,16.3500463968277,15.2459,16.485446396827697,15.1612C16.6207463968277,15.0765,16.7715463968277,15.0196,16.928946396827698,14.9938C17.1827463968277,14.94,17.480646396827698,14.9,17.783946396827698,14.8559C17.783946396827698,14.8559,18.651346396827698,14.7345,18.651346396827698,14.7345C19.186446396827698,14.6821,19.720046396827698,14.6421,20.267446396827697,14.5966C20.815046396827697,14.5511,21.3706463968277,14.5566,21.871346396827697,14.5566C22.3718463968277,14.5566,22.912346396827697,14.569,23.486046396827696,14.5966C24.037746396827696,14.6366,24.5686463968277,14.6766,25.0899463968277,14.7345C25.0899463968277,14.7345,25.9572463968277,14.8559,25.9572463968277,14.8559C26.278546396827696,14.8959,26.558446396827698,14.9358,26.825946396827696,14.9938C26.894146396827697,15.0047,26.961146396827697,15.0223,27.0259463968277,15.0462C27.328146396827698,15.1553,27.5749463968277,15.3794,27.712746396827697,15.6698C27.850346396827696,15.9601,27.867746396827698,16.2931,27.7609463968277,16.5962C27.653346396827697,16.872,27.5471463968277,17.156,27.439646396827698,17.4235C27.3321463968277,17.691,27.2259463968277,17.9585,27.105946396827697,18.2247C26.6720463968277,19.2075,26.1860463968277,20.1664,25.649746396827698,21.0972C25.110946396827696,22.0347,24.517846396827697,22.9399,23.8735463968277,23.8083C23.673146396827697,24.074,23.4998463968277,24.3011,23.3537463968277,24.4895C23.126146396827696,24.7653,22.952446396827696,24.997,22.8021463968277,25.1569C22.755046396827698,25.2166,22.700946396827696,25.2703,22.640746396827698,25.3169C22.519446396827696,25.4191,22.379046396827697,25.4961,22.227646396827698,25.5434C22.0762463968277,25.5907,21.917046396827697,25.6075,21.7591463968277,25.5925C21.601246396827698,25.5777,21.447946396827696,25.5314,21.3080463968277,25.4567C21.168146396827698,25.3819,21.044646396827698,25.28,20.944646396827697,25.1569C20.744746396827697,24.9294,20.570946396827697,24.7156,20.393046396827696,24.4895C20.393046396827696,24.4895,20.395846396827697,24.4839,20.395846396827697,24.4839C20.395846396827697,24.4839,20.395846396827697,24.4839,20.395846396827697,24.4839Z" fill="#8896AB" fill-opacity="1"/></g></g><g><path d="M56.192887493896485,17.36097883605957C57.047287493896484,16.03191883605957,58.55041749389648,15.36737883605957,60.70225749389648,15.36737883605957C60.70225749389648,15.36737883605957,60.70225749389648,18.19165883605957,60.70225749389648,18.19165883605957C60.44909749389649,18.14418883605957,60.219677493896484,18.12045883605957,60.01397749389648,18.12045883605957C58.858937493896484,18.12045883605957,57.95706749389648,18.46063883605957,57.308347493896484,19.14099883605957C56.65963749389648,19.805528836059572,56.335277493896484,20.77072883605957,56.335277493896484,22.03642883605957C56.335277493896484,22.03642883605957,56.335277493896484,28.18352883605957,56.335277493896484,28.18352883605957C56.335277493896484,28.18352883605957,53.368587493896484,28.18352883605957,53.368587493896484,28.18352883605957C53.368587493896484,28.18352883605957,53.368587493896484,15.50977883605957,53.368587493896484,15.50977883605957C53.368587493896484,15.50977883605957,56.192887493896485,15.50977883605957,56.192887493896485,15.50977883605957C56.192887493896485,15.50977883605957,56.192887493896485,17.36097883605957,56.192887493896485,17.36097883605957C56.192887493896485,17.36097883605957,56.192887493896485,17.36097883605957,56.192887493896485,17.36097883605957ZM75.01728749389649,21.91782883605957C75.01728749389649,22.12352883605957,75.00148749389649,22.41622883605957,74.96988749389648,22.79592883605957C74.96988749389648,22.79592883605957,65.02548749389649,22.79592883605957,65.02548749389649,22.79592883605957C65.19948749389648,23.72942883605957,65.65048749389649,24.473128836059573,66.37828749389648,25.026928836059568C67.12188749389648,25.56482883605957,68.03958749389648,25.83382883605957,69.13128749389648,25.83382883605957C70.52378749389649,25.83382883605957,71.67078749389648,25.37492883605957,72.57268749389648,24.45732883605957C72.57268749389648,24.45732883605957,74.16288749389648,26.28472883605957,74.16288749389648,26.28472883605957C73.59328749389648,26.96512883605957,72.87328749389648,27.47942883605957,72.00318749389649,27.82732883605957C71.13288749389648,28.17542883605957,70.15188749389648,28.34952883605957,69.06018749389648,28.34952883605957C67.66778749389648,28.34952883605957,66.44158749389649,28.07262883605957,65.38148749389649,27.51882883605957C64.32138749389648,26.96512883605957,63.49858749389649,26.19782883605957,62.913177493896484,25.21672883605957C62.34356749389649,24.21992883605957,62.05876749389648,23.09652883605957,62.05876749389648,21.846628836059573C62.05876749389648,20.61242883605957,62.335657493896484,19.50489883605957,62.88944749389648,18.523918836059572C63.45908749389648,17.52712883605957,64.24228749389648,16.75182883605957,65.23908749389648,16.19804883605957C66.23588749389648,15.64425883605957,67.35928749389649,15.36737883605957,68.60928749389649,15.36737883605957C69.84338749389649,15.36737883605957,70.94308749389648,15.64425883605957,71.90818749389649,16.19804883605957C72.88918749389649,16.73600883605957,73.64858749389649,17.50338883605957,74.18668749389649,18.50019883605957C74.74048749389648,19.48116883605957,75.01728749389649,20.62032883605957,75.01728749389649,21.91782883605957C75.01728749389649,21.91782883605957,75.01728749389649,21.91782883605957,75.01728749389649,21.91782883605957ZM68.60928749389649,17.74072883605957C67.65988749389649,17.74072883605957,66.85288749389649,18.02552883605957,66.18838749389649,18.59511883605957C65.53968749389648,19.14890883605957,65.14408749389648,19.89255883605957,65.00168749389648,20.82602883605957C65.00168749389648,20.82602883605957,72.19298749389648,20.82602883605957,72.19298749389648,20.82602883605957C72.06638749389649,19.90837883605957,71.67878749389648,19.16472883605957,71.03008749389649,18.59511883605957C70.38128749389648,18.02552883605957,69.57438749389648,17.74072883605957,68.60928749389649,17.74072883605957C68.60928749389649,17.74072883605957,68.60928749389649,17.74072883605957,68.60928749389649,17.74072883605957ZM81.78298749389648,28.34952883605957C80.75458749389648,28.34952883605957,79.74988749389648,28.21512883605957,78.76888749389649,27.946028836059572C77.78788749389648,27.67702883605957,77.00468749389648,27.33692883605957,76.41918749389649,26.92562883605957C76.41918749389649,26.92562883605957,77.55848749389648,24.67092883605957,77.55848749389648,24.67092883605957C78.12798749389648,25.05062883605957,78.80828749389649,25.35912883605957,79.59948749389648,25.59652883605957C80.40648749389649,25.817928836059572,81.19748749389649,25.92872883605957,81.97278749389648,25.92872883605957C83.74498749389649,25.92872883605957,84.63098749389648,25.46202883605957,84.63098749389648,24.52852883605957C84.63098749389648,24.08542883605957,84.40158749389649,23.776928836059568,83.94278749389649,23.60292883605957C83.49968749389649,23.428828836059573,82.77978749389649,23.262728836059573,81.78298749389648,23.10442883605957C80.73868749389649,22.946228836059568,79.88428749389648,22.76432883605957,79.21978749389649,22.55862883605957C78.57108749389648,22.35292883605957,78.00138749389649,21.99692883605957,77.51098749389648,21.49062883605957C77.03628749389648,20.968428836059573,76.79888749389649,20.24854883605957,76.79888749389649,19.33085883605957C76.79888749389649,18.128368836059572,77.29728749389648,17.17111883605957,78.29418749389649,16.45911883605957C79.30678749389648,15.73128883605957,80.66748749389649,15.36737883605957,82.37628749389648,15.36737883605957C83.24658749389648,15.36737883605957,84.11688749389648,15.47021883605957,84.98698749389649,15.67590883605957C85.85728749389648,15.86578883605957,86.5691874938965,16.12683883605957,87.12298749389649,16.45911883605957C87.12298749389649,16.45911883605957,85.98388749389648,18.71379883605957,85.98388749389648,18.71379883605957C84.90788749389648,18.08089883605957,83.69748749389649,17.76445883605957,82.3525874938965,17.76445883605957C81.48238749389648,17.76445883605957,80.81778749389649,17.89893883605957,80.35898749389648,18.16791883605957C79.91588749389649,18.42107883605957,79.69448749389649,18.76126883605957,79.69448749389649,19.18846883605957C79.69448749389649,19.66312883605957,79.93178749389648,20.00330883605957,80.40648749389649,20.208988836059568C80.89698749389649,20.39886883605957,81.64848749389648,20.58082883605957,82.66118749389648,20.75482883605957C83.67378749389648,20.91312883605957,84.50448749389648,21.09502883605957,85.15318749389648,21.30072883605957C85.80188749389649,21.50642883605957,86.35568749389648,21.854528836059572,86.81448749389648,22.34502883605957C87.28918749389649,22.83552883605957,87.52648749389648,23.531628836059568,87.52648749389648,24.433528836059573C87.52648749389648,25.62022883605957,87.01228749389648,26.56952883605957,85.98388749389648,27.28162883605957C84.95538749389648,27.99352883605957,83.55508749389648,28.34952883605957,81.78298749389648,28.34952883605957C81.78298749389648,28.34952883605957,81.78298749389648,28.34952883605957,81.78298749389648,28.34952883605957ZM101.9955874938965,21.91782883605957C101.9955874938965,22.12352883605957,101.97978749389648,22.41622883605957,101.94808749389648,22.79592883605957C101.94808749389648,22.79592883605957,92.00388749389649,22.79592883605957,92.00388749389649,22.79592883605957C92.17778749389649,23.72942883605957,92.62868749389648,24.473128836059573,93.35658749389648,25.026928836059568C94.10028749389647,25.56482883605957,95.01788749389648,25.83382883605957,96.10968749389649,25.83382883605957C97.50198749389648,25.83382883605957,98.64918749389648,25.37492883605957,99.55108749389649,24.45732883605957C99.55108749389649,24.45732883605957,101.14118749389648,26.28472883605957,101.14118749389648,26.28472883605957C100.57158749389649,26.96512883605957,99.85168749389649,27.47942883605957,98.98148749389648,27.82732883605957C98.11128749389648,28.17542883605957,97.13018749389649,28.34952883605957,96.03848749389648,28.34952883605957C94.64618749389649,28.34952883605957,93.41988749389648,28.07262883605957,92.35988749389648,27.51882883605957C91.29978749389647,26.96512883605957,90.47698749389649,26.19782883605957,89.89158749389648,25.21672883605957C89.32198749389649,24.21992883605957,89.03718749389648,23.09652883605957,89.03718749389648,21.846628836059573C89.03718749389648,20.61242883605957,89.3140874938965,19.50489883605957,89.86788749389649,18.523918836059572C90.4373874938965,17.52712883605957,91.22058749389649,16.75182883605957,92.21738749389648,16.19804883605957C93.21428749389648,15.64425883605957,94.33758749389648,15.36737883605957,95.58758749389648,15.36737883605957C96.82168749389649,15.36737883605957,97.92138749389648,15.64425883605957,98.88648749389648,16.19804883605957C99.86748749389648,16.73600883605957,100.62708749389648,17.50338883605957,101.16498749389649,18.50019883605957C101.71868749389648,19.48116883605957,101.9955874938965,20.62032883605957,101.9955874938965,21.91782883605957C101.9955874938965,21.91782883605957,101.9955874938965,21.91782883605957,101.9955874938965,21.91782883605957ZM95.58758749389648,17.74072883605957C94.63818749389648,17.74072883605957,93.83128749389648,18.02552883605957,93.16678749389649,18.59511883605957C92.51798749389648,19.14890883605957,92.12238749389648,19.89255883605957,91.98008749389649,20.82602883605957C91.98008749389649,20.82602883605957,99.17138749389648,20.82602883605957,99.17138749389648,20.82602883605957C99.04478749389648,19.90837883605957,98.65708749389648,19.16472883605957,98.00828749389649,18.59511883605957C97.35968749389649,18.02552883605957,96.55278749389649,17.74072883605957,95.58758749389648,17.74072883605957C95.58758749389648,17.74072883605957,95.58758749389648,17.74072883605957,95.58758749389648,17.74072883605957ZM110.66008749389648,28.34952883605957C109.34668749389648,28.34952883605957,108.16808749389648,28.07262883605957,107.12368749389648,27.51882883605957C106.07938749389649,26.96512883605957,105.26458749389649,26.19782883605957,104.67918749389648,25.21672883605957C104.09378749389649,24.21992883605957,103.80108749389649,23.09652883605957,103.80108749389649,21.846628836059573C103.80108749389649,20.596628836059573,104.09378749389649,19.48116883605957,104.67918749389648,18.50019883605957C105.26458749389649,17.51920883605957,106.07148749389648,16.75182883605957,107.09998749389649,16.19804883605957C108.14428749389648,15.64425883605957,109.33098749389649,15.36737883605957,110.66008749389648,15.36737883605957C111.90988749389649,15.36737883605957,113.00178749389649,15.62053883605957,113.93528749389648,16.12683883605957C114.88458749389648,16.63316883605957,115.5965874938965,17.36097883605957,116.07128749389648,18.310318836059572C116.07128749389648,18.310318836059572,113.79278749389648,19.63939883605957,113.79278749389648,19.63939883605957C113.42898749389649,19.05396883605957,112.97018749389647,18.61885883605957,112.41638749389648,18.334068836059572C111.8782874938965,18.03343883605957,111.28508749389648,17.88311883605957,110.63628749389648,17.88311883605957C109.52878749389649,17.88311883605957,108.61098749389649,18.24703883605957,107.88318749389649,18.97484883605957C107.15538749389648,19.68686883605957,106.79148749389648,20.644128836059572,106.79148749389648,21.846628836059573C106.79148749389648,23.04912883605957,107.14748749389648,24.014228836059573,107.85938749389649,24.74212883605957C108.58728749389648,25.45412883605957,109.51288749389649,25.810028836059573,110.63628749389648,25.810028836059573C111.28508749389648,25.810028836059573,111.8782874938965,25.66772883605957,112.41638749389648,25.38292883605957C112.97018749389647,25.08222883605957,113.42898749389649,24.639228836059573,113.79278749389648,24.053828836059573C113.79278749389648,24.053828836059573,116.07128749389648,25.38292883605957,116.07128749389648,25.38292883605957C115.58088749389648,26.33222883605957,114.86088749389648,27.067928836059572,113.91148749389649,27.59012883605957C112.97798749389648,28.09642883605957,111.89418749389648,28.34952883605957,110.66008749389648,28.34952883605957C110.66008749389648,28.34952883605957,110.66008749389648,28.34952883605957,110.66008749389648,28.34952883605957ZM130.90608749389648,15.50977883605957C130.90608749389648,15.50977883605957,130.90608749389648,28.18352883605957,130.90608749389648,28.18352883605957C130.90608749389648,28.18352883605957,128.08168749389648,28.18352883605957,128.08168749389648,28.18352883605957C128.08168749389648,28.18352883605957,128.08168749389648,26.56952883605957,128.08168749389648,26.56952883605957C127.60698749389648,27.13912883605957,127.01378749389649,27.58222883605957,126.30178749389648,27.89862883605957C125.58968749389649,28.19922883605957,124.82238749389649,28.34952883605957,123.99958749389648,28.34952883605957C122.30668749389649,28.34952883605957,120.96948749389648,27.88282883605957,119.98858749389649,26.94932883605957C119.02348749389648,26.00002883605957,118.54088749389649,24.599628836059573,118.54088749389649,22.74842883605957C118.54088749389649,22.74842883605957,118.54088749389649,15.50977883605957,118.54088749389649,15.50977883605957C118.54088749389649,15.50977883605957,121.50758749389648,15.50977883605957,121.50758749389648,15.50977883605957C121.50758749389648,15.50977883605957,121.50758749389648,22.34502883605957,121.50758749389648,22.34502883605957C121.50758749389648,23.48422883605957,121.76068749389648,24.33862883605957,122.26698749389648,24.90822883605957C122.78918749389648,25.46202883605957,123.52488749389649,25.738828836059568,124.47428749389648,25.738828836059568C125.53438749389649,25.738828836059568,126.37288749389649,25.41452883605957,126.98998749389648,24.76582883605957C127.62288749389649,24.101328836059572,127.93938749389649,23.151928836059568,127.93938749389649,21.91782883605957C127.93938749389649,21.91782883605957,127.93938749389649,15.50977883605957,127.93938749389649,15.50977883605957C127.93938749389649,15.50977883605957,130.90608749389648,15.50977883605957,130.90608749389648,15.50977883605957C130.90608749389648,15.50977883605957,130.90608749389648,15.50977883605957,130.90608749389648,15.50977883605957ZM137.61458749389647,17.36097883605957C138.46898749389646,16.03191883605957,139.97218749389648,15.36737883605957,142.12408749389647,15.36737883605957C142.12408749389647,15.36737883605957,142.12408749389647,18.19165883605957,142.12408749389647,18.19165883605957C141.87088749389648,18.14418883605957,141.6413874938965,18.12045883605957,141.43568749389647,18.12045883605957C140.2806874938965,18.12045883605957,139.37878749389648,18.46063883605957,138.7301874938965,19.14099883605957C138.08148749389647,19.805528836059572,137.75708749389648,20.77072883605957,137.75708749389648,22.03642883605957C137.75708749389648,22.03642883605957,137.75708749389648,28.18352883605957,137.75708749389648,28.18352883605957C137.75708749389648,28.18352883605957,134.7903874938965,28.18352883605957,134.7903874938965,28.18352883605957C134.7903874938965,28.18352883605957,134.7903874938965,15.50977883605957,134.7903874938965,15.50977883605957C134.7903874938965,15.50977883605957,137.61458749389647,15.50977883605957,137.61458749389647,15.50977883605957C137.61458749389647,15.50977883605957,137.61458749389647,17.36097883605957,137.61458749389647,17.36097883605957C137.61458749389647,17.36097883605957,137.61458749389647,17.36097883605957,137.61458749389647,17.36097883605957ZM151.6657874938965,15.36737883605957C152.89988749389647,15.36737883605957,153.99958749389648,15.636358836059571,154.9645874938965,16.17430883605957C155.94558749389648,16.71226883605957,156.71358749389648,17.471738836059572,157.26658749389648,18.45272883605957C157.82058749389648,19.433708836059573,158.09758749389647,20.564998836059573,158.09758749389647,21.846628836059573C158.09758749389647,23.12822883605957,157.82058749389648,24.267428836059572,157.26658749389648,25.264228836059573C156.71358749389648,26.24512883605957,155.94558749389648,27.00472883605957,154.9645874938965,27.54262883605957C153.99958749389648,28.08062883605957,152.89988749389647,28.34952883605957,151.6657874938965,28.34952883605957C150.79568749389648,28.34952883605957,149.99658749389647,28.19922883605957,149.26878749389647,27.89862883605957C148.55678749389648,27.59792883605957,147.9554874938965,27.14702883605957,147.4649874938965,26.54572883605957C147.4649874938965,26.54572883605957,147.4649874938965,28.18352883605957,147.4649874938965,28.18352883605957C147.4649874938965,28.18352883605957,144.64068749389648,28.18352883605957,144.64068749389648,28.18352883605957C144.64068749389648,28.18352883605957,144.64068749389648,10.57322883605957,144.64068749389648,10.57322883605957C144.64068749389648,10.57322883605957,147.60738749389648,10.57322883605957,147.60738749389648,10.57322883605957C147.60738749389648,10.57322883605957,147.60738749389648,17.05245883605957,147.60738749389648,17.05245883605957C148.11368749389646,16.498668836059572,148.7070874938965,16.07938883605957,149.3874874938965,15.794578836059571C150.0835874938965,15.50977883605957,150.8430874938965,15.36737883605957,151.6657874938965,15.36737883605957C151.6657874938965,15.36737883605957,151.6657874938965,15.36737883605957,151.6657874938965,15.36737883605957ZM151.3335874938965,25.810028836059573C152.4253874938965,25.810028836059573,153.31928749389647,25.44612883605957,154.01558749389648,24.71832883605957C154.72758749389646,23.990528836059568,155.0835874938965,23.03322883605957,155.0835874938965,21.846628836059573C155.0835874938965,20.65992883605957,154.72758749389646,19.70267883605957,154.01558749389648,18.97484883605957C153.31928749389647,18.24703883605957,152.4253874938965,17.88311883605957,151.3335874938965,17.88311883605957C150.62158749389647,17.88311883605957,149.98068749389648,18.04924883605957,149.41118749389648,18.38152883605957C148.8415874938965,18.69796883605957,148.39058749389648,19.15681883605957,148.05838749389648,19.75805883605957C147.7260874938965,20.35930883605957,147.5598874938965,21.055528836059572,147.5598874938965,21.846628836059573C147.5598874938965,22.637728836059573,147.7260874938965,23.33392883605957,148.05838749389648,23.93512883605957C148.39058749389648,24.53642883605957,148.8415874938965,25.00312883605957,149.41118749389648,25.33542883605957C149.98068749389648,25.651828836059572,150.62158749389647,25.810028836059573,151.3335874938965,25.810028836059573C151.3335874938965,25.810028836059573,151.3335874938965,25.810028836059573,151.3335874938965,25.810028836059573Z" fill="#8896AB" fill-opacity="1"/></g></g></svg>