<svg xmlns="http://www.w3.org/2000/svg" xmlns:xlink="http://www.w3.org/1999/xlink" fill="none" version="1.1" width="139.6678466796875" height="39.55572509765625" viewBox="0 0 139.6678466796875 39.55572509765625"><defs><clipPath id="master_svg0_0_362"><rect x="0" y="0" width="35.572731018066406" height="39.55571365356445" rx="0"/></clipPath></defs><g><g><path d="M47.57365791015625,13.187879794006347C47.57365791015625,20.307949794006348,55.22769791015625,21.269149794006346,55.22769791015625,26.395549794006346C55.22769791015625,28.175649794006347,54.44448791015625,28.81634979400635,53.19847791015625,28.81634979400635C51.95247791015625,28.81634979400635,51.16926791015625,28.175649794006347,51.16926791015625,26.395549794006346C51.16926791015625,26.395549794006346,51.16926791015625,24.61554979400635,51.16926791015625,24.61554979400635C51.16926791015625,24.61554979400635,47.46685791015625,24.61554979400635,47.46685791015625,24.61554979400635C47.46685791015625,24.61554979400635,47.46685791015625,26.146349794006348,47.46685791015625,26.146349794006348C47.46685791015625,30.13344979400635,49.46046791015625,32.41194979400635,53.30528791015625,32.41194979400635C57.15008791015625,32.41194979400635,59.14375791015625,30.13344979400635,59.14375791015625,26.146349794006348C59.14375791015625,19.026249794006347,51.48966791015625,18.06504979400635,51.48966791015625,12.938669794006348C51.48966791015625,11.158659794006347,52.20167791015625,10.482259794006348,53.44767791015625,10.482259794006348C54.69368791015625,10.482259794006348,55.40568791015625,11.158659794006347,55.40568791015625,12.938669794006348C55.40568791015625,12.938669794006348,55.40568791015625,13.971079794006346,55.40568791015625,13.971079794006346C55.40568791015625,13.971079794006346,59.10805791015625,13.971079794006346,59.10805791015625,13.971079794006346C59.10805791015625,13.971079794006346,59.10805791015625,13.187879794006347,59.10805791015625,13.187879794006347C59.10805791015625,9.200649794006347,57.15008791015625,6.922249794006348,53.34087791015625,6.922249794006348C49.53165791015625,6.922249794006348,47.57365791015625,9.200649794006347,47.57365791015625,13.187879794006347C47.57365791015625,13.187879794006347,47.57365791015625,13.187879794006347,47.57365791015625,13.187879794006347ZM64.81085791015624,32.12714979400634C64.81085791015624,32.12714979400634,68.72685791015626,32.12714979400634,68.72685791015626,32.12714979400634C68.72685791015626,32.12714979400634,68.72685791015626,23.867849794006347,68.72685791015626,23.867849794006347C68.72685791015626,23.867849794006347,73.67525791015625,7.207049794006347,73.67525791015625,7.207049794006347C73.67525791015625,7.207049794006347,69.93725791015625,7.207049794006347,69.93725791015625,7.207049794006347C69.93725791015625,7.207049794006347,66.94685791015625,18.563449794006345,66.94685791015625,18.563449794006345C66.94685791015625,18.563449794006345,63.956457910156246,7.207049794006347,63.956457910156246,7.207049794006347C63.956457910156246,7.207049794006347,59.86235791015625,7.207049794006347,59.86235791015625,7.207049794006347C59.86235791015625,7.207049794006347,64.81085791015624,23.867849794006347,64.81085791015624,23.867849794006347C64.81085791015624,23.867849794006347,64.81085791015624,32.12714979400634,64.81085791015624,32.12714979400634C64.81085791015624,32.12714979400634,64.81085791015624,32.12714979400634,64.81085791015624,32.12714979400634ZM80.67005791015626,7.207049794006347C80.67005791015626,7.207049794006347,75.22325791015625,7.207049794006347,75.22325791015625,7.207049794006347C75.22325791015625,7.207049794006347,75.22325791015625,32.12714979400634,75.22325791015625,32.12714979400634C75.22325791015625,32.12714979400634,78.64085791015626,32.12714979400634,78.64085791015626,32.12714979400634C78.64085791015626,32.12714979400634,78.64085791015626,14.505089794006349,78.64085791015626,14.505089794006349C78.64085791015626,14.505089794006349,81.56015791015625,32.12714979400634,81.56015791015625,32.12714979400634C81.56015791015625,32.12714979400634,85.26255791015625,32.12714979400634,85.26255791015625,32.12714979400634C85.26255791015625,32.12714979400634,87.96825791015624,14.255889794006347,87.96825791015624,14.255889794006347C87.96825791015624,14.255889794006347,87.96825791015624,32.12714979400634,87.96825791015624,32.12714979400634C87.96825791015624,32.12714979400634,91.67055791015625,32.12714979400634,91.67055791015625,32.12714979400634C91.67055791015625,32.12714979400634,91.67055791015625,7.207049794006347,91.67055791015625,7.207049794006347C91.67055791015625,7.207049794006347,86.22375791015625,7.207049794006347,86.22375791015625,7.207049794006347C86.22375791015625,7.207049794006347,83.55375791015625,24.90024979400635,83.55375791015625,24.90024979400635C83.55375791015625,24.90024979400635,80.67005791015626,7.207049794006347,80.67005791015626,7.207049794006347C80.67005791015626,7.207049794006347,80.67005791015626,7.207049794006347,80.67005791015626,7.207049794006347ZM93.37985791015625,10.767069794006348C93.37985791015625,10.767069794006348,97.47385791015626,10.767069794006348,97.47385791015626,10.767069794006348C97.47385791015626,10.767069794006348,97.47385791015626,32.12714979400634,97.47385791015626,32.12714979400634C97.47385791015626,32.12714979400634,101.38995791015626,32.12714979400634,101.38995791015626,32.12714979400634C101.38995791015626,32.12714979400634,101.38995791015626,10.767069794006348,101.38995791015626,10.767069794006348C101.38995791015626,10.767069794006348,105.48395791015625,10.767069794006348,105.48395791015625,10.767069794006348C105.48395791015625,10.767069794006348,105.48395791015625,7.207049794006347,105.48395791015625,7.207049794006347C105.48395791015625,7.207049794006347,93.37985791015625,7.207049794006347,93.37985791015625,7.207049794006347C93.37985791015625,7.207049794006347,93.37985791015625,10.767069794006348,93.37985791015625,10.767069794006348C93.37985791015625,10.767069794006348,93.37985791015625,10.767069794006348,93.37985791015625,10.767069794006348ZM119.38385791015625,32.12714979400634C118.99235791015624,31.201549794006347,118.95665791015625,30.311649794006346,118.95665791015625,29.101049794006347C118.95665791015625,29.101049794006347,118.95665791015625,25.256249794006347,118.95665791015625,25.256249794006347C118.95665791015625,22.65754979400635,118.31595791015626,20.77074979400635,116.35785791015626,19.951949794006346C118.10225791015625,19.13314979400635,118.92105791015625,17.459849794006345,118.92105791015625,14.896679794006348C118.92105791015625,14.896679794006348,118.92105791015625,12.938669794006348,118.92105791015625,12.938669794006348C118.92105791015625,9.093859794006347,117.17655791015625,7.207049794006347,113.11825791015625,7.207049794006347C113.11825791015625,7.207049794006347,107.20865791015625,7.207049794006347,107.20865791015625,7.207049794006347C107.20865791015625,7.207049794006347,107.20865791015625,32.12714979400634,107.20865791015625,32.12714979400634C107.20865791015625,32.12714979400634,111.12465791015626,32.12714979400634,111.12465791015626,32.12714979400634C111.12465791015626,32.12714979400634,111.12465791015626,21.98114979400635,111.12465791015626,21.98114979400635C111.12465791015626,21.98114979400635,112.47735791015624,21.98114979400635,112.47735791015624,21.98114979400635C114.25745791015625,21.98114979400635,115.04055791015625,22.835549794006347,115.04055791015625,25.149549794006347C115.04055791015625,25.149549794006347,115.04055791015625,29.065549794006348,115.04055791015625,29.065549794006348C115.04055791015625,31.094849794006347,115.18305791015625,31.486349794006347,115.39675791015625,32.12714979400634C115.39675791015625,32.12714979400634,119.38385791015625,32.12714979400634,119.38385791015625,32.12714979400634C119.38385791015625,32.12714979400634,119.38385791015625,32.12714979400634,119.38385791015625,32.12714979400634ZM113.01145791015625,10.767069794006348C114.39985791015626,10.767069794006348,115.00505791015625,11.550269794006347,115.00505791015625,13.330269794006348C115.00505791015625,13.330269794006348,115.00505791015625,15.786689794006348,115.00505791015625,15.786689794006348C115.00505791015625,17.780349794006348,114.11515791015626,18.421149794006347,112.65555791015625,18.421149794006347C112.65555791015625,18.421149794006347,111.12465791015626,18.421149794006347,111.12465791015626,18.421149794006347C111.12465791015626,18.421149794006347,111.12465791015626,10.767069794006348,111.12465791015626,10.767069794006348C111.12465791015626,10.767069794006348,113.01145791015625,10.767069794006348,113.01145791015625,10.767069794006348C113.01145791015625,10.767069794006348,113.01145791015625,10.767069794006348,113.01145791015625,10.767069794006348ZM121.53205791015625,32.12714979400634C121.53205791015625,32.12714979400634,125.44815791015625,32.12714979400634,125.44815791015625,32.12714979400634C125.44815791015625,32.12714979400634,125.44815791015625,7.207049794006347,125.44815791015625,7.207049794006347C125.44815791015625,7.207049794006347,121.53205791015625,7.207049794006347,121.53205791015625,7.207049794006347C121.53205791015625,7.207049794006347,121.53205791015625,32.12714979400634,121.53205791015625,32.12714979400634C121.53205791015625,32.12714979400634,121.53205791015625,32.12714979400634,121.53205791015625,32.12714979400634ZM135.96545791015626,22.835549794006347C135.96545791015626,22.835549794006347,135.96545791015626,26.395549794006346,135.96545791015626,26.395549794006346C135.96545791015626,28.175649794006347,135.18225791015624,28.81634979400635,133.93625791015626,28.81634979400635C132.69035791015625,28.81634979400635,131.90695791015625,28.175649794006347,131.90695791015625,26.395549794006346C131.90695791015625,26.395549794006346,131.90695791015625,12.938669794006348,131.90695791015625,12.938669794006348C131.90695791015625,11.158659794006347,132.69035791015625,10.482259794006348,133.93625791015626,10.482259794006348C135.18225791015624,10.482259794006348,135.96545791015626,11.158659794006347,135.96545791015626,12.938669794006348C135.96545791015626,12.938669794006348,135.96545791015626,15.608689794006347,135.96545791015626,15.608689794006347C135.96545791015626,15.608689794006347,139.66785791015624,15.608689794006347,139.66785791015624,15.608689794006347C139.66785791015624,15.608689794006347,139.66785791015624,13.187879794006347,139.66785791015624,13.187879794006347C139.66785791015624,9.200649794006347,137.67425791015626,6.922249794006348,133.82945791015624,6.922249794006348C129.98465791015624,6.922249794006348,127.99105791015624,9.200649794006347,127.99105791015624,13.187879794006347C127.99105791015624,13.187879794006347,127.99105791015624,26.146349794006348,127.99105791015624,26.146349794006348C127.99105791015624,30.13344979400635,129.98465791015624,32.41194979400635,133.82945791015624,32.41194979400635C137.67425791015626,32.41194979400635,139.66785791015624,30.13344979400635,139.66785791015624,26.146349794006348C139.66785791015624,26.146349794006348,139.66785791015624,22.835549794006347,139.66785791015624,22.835549794006347C139.66785791015624,22.835549794006347,135.96545791015626,22.835549794006347,135.96545791015626,22.835549794006347C135.96545791015626,22.835549794006347,135.96545791015626,22.835549794006347,135.96545791015626,22.835549794006347Z" fill="#8896AB" fill-opacity="1"/></g><g clip-path="url(#master_svg0_0_362)"><g><path d="M13.455339642770186,12.541293202657998C13.455339642770186,12.541293202657998,11.315539642770187,16.240793202657997,11.315539642770187,16.240793202657997C11.315539642770187,16.240793202657997,9.279389642770187,12.708893202657997,9.279389642770187,12.708893202657997C9.279389642770187,12.708893202657997,11.408639642770186,9.009393202657998,11.408639642770186,9.009393202657998C11.408639642770186,9.009393202657998,26.281339642770188,9.009393202657998,26.281339642770188,9.009393202657998C26.281339642770188,9.009393202657998,29.439239642770186,3.5319532026579976,29.439239642770186,3.5319532026579976C29.439239642770186,3.5319532026579976,8.248039642770188,3.5319532026579976,8.248039642770188,3.5319532026579976C8.248039642770188,3.5319532026579976,4.072099642770187,10.775293202657998,4.072099642770187,10.775293202657998C7.204729642770187,16.187093202657998,10.332539642770186,21.598893202657997,13.455339642770186,27.010693202657997C13.455339642770186,27.010693202657997,19.771139642770187,27.010693202657997,19.771139642770187,27.010693202657997C18.184839642770186,24.264993202657998,16.599439642770186,21.519493202657998,15.015039642770187,18.774493202657997C15.015039642770187,18.774493202657997,14.575839642770188,18.014593202658,14.575839642770188,18.014593202658C14.575839642770188,18.014593202658,29.050639642770186,18.014593202658,29.050639642770186,18.014593202658C29.050639642770186,18.014593202658,35.276039642770186,28.793893202657998,35.276039642770186,28.793893202657998C35.276039642770186,28.793893202657998,29.050639642770186,39.555793202657995,29.050639642770186,39.555793202657995C29.050639642770186,39.555793202657995,6.211979642770187,39.555793202657995,6.211979642770187,39.555793202657995C6.211979642770187,39.555793202657995,0.050558242770186765,28.690193202657998,0.050558242770186765,28.690193202657998C0.050558242770186765,28.690193202657998,3.1445896427701867,23.316493202658,3.1445896427701867,23.316493202658C3.1445896427701867,23.316493202658,5.1939696427701865,26.847093202657998,5.1939696427701865,26.847093202657998C5.1939696427701865,26.847093202657998,4.085419642770186,28.780593202657997,4.085419642770186,28.780593202657997C4.085419642770186,28.780593202657997,8.261359642770186,36.023993202658,8.261359642770186,36.023993202658C8.261359642770186,36.023993202658,27.002639642770188,36.023993202658,27.002639642770188,36.023993202658C27.002639642770188,36.023993202658,31.191839642770187,28.780593202657997,31.191839642770187,28.780593202657997C31.191839642770187,28.780593202657997,27.015939642770185,21.537193202658,27.015939642770185,21.537193202658C27.015939642770185,21.537193202658,20.700139642770186,21.537193202658,20.700139642770186,21.537193202658C22.039639642770187,23.870593202657997,23.380239642770185,26.203293202658,24.721639642770185,28.535793202658C24.721639642770185,28.535793202658,24.873239642770187,28.776693202658,24.873239642770187,28.776693202658C24.873239642770187,28.776693202658,23.855439642770186,30.542593202657997,23.855439642770186,30.542593202657997C23.855439642770186,30.542593202657997,11.419239642770187,30.542593202657997,11.419239642770187,30.542593202657997C7.654979642770186,24.033293202657998,3.895549642770187,17.528893202657997,0.14100864277018677,11.029493202657997C0.14100864277018677,11.029493202657997,-0.00006035722981323488,10.771293202657997,-0.00006035722981323488,10.771293202657997C-0.00006035722981323488,10.771293202657997,6.211979642770187,-0.007906797342002392,6.211979642770187,-0.007906797342002392C6.211979642770187,-0.007906797342002392,35.571339642770184,-0.007906797342002392,35.571339642770184,-0.007906797342002392C35.571339642770184,-0.007906797342002392,28.333439642770188,12.541293202657998,28.333439642770188,12.541293202657998C28.333439642770188,12.541293202657998,13.455339642770186,12.541293202657998,13.455339642770186,12.541293202657998C13.455339642770186,12.541293202657998,13.455339642770186,12.541293202657998,13.455339642770186,12.541293202657998Z" fill-rule="evenodd" fill="#8896AB" fill-opacity="1"/></g></g></g></svg>