<svg xmlns="http://www.w3.org/2000/svg" xmlns:xlink="http://www.w3.org/1999/xlink" fill="none" version="1.1" width="166.466552734375" height="43.51129150390625" viewBox="0 0 166.466552734375 43.51129150390625"><defs><clipPath id="master_svg0_0_354"><rect x="0" y="0" width="43.51128387451172" height="43.51128387451172" rx="0"/></clipPath></defs><g><g><path d="M68.03591141357421,26.442993922424318C68.03591141357421,28.510293922424317,67.55071141357422,30.029393922424315,66.58021141357422,30.999693922424317C65.60980141357422,31.970093922424315,64.11196141357422,32.45539392242432,62.08670141357422,32.45539392242432C60.08255141357422,32.45539392242432,57.95181141357422,32.34979392242431,55.69451141357422,32.138893922424316C55.69451141357422,32.138893922424316,55.69451141357422,27.866893922424318,55.69451141357422,27.866893922424318C57.340031413574216,27.972393922424317,59.027731413574216,28.025193922424318,60.75763141357422,28.025193922424318C61.24286141357422,28.025193922424318,61.62259141357422,27.888093922424318,61.89685141357422,27.613693922424318C62.19218141357422,27.318393922424317,62.339871413574215,26.928093922424317,62.339871413574215,26.442993922424318C62.339871413574215,26.442993922424318,62.339871413574215,14.418023922424316,62.339871413574215,14.418023922424316C62.339871413574215,14.418023922424316,58.22607141357422,14.418023922424316,58.22607141357422,14.418023922424316C58.22607141357422,14.418023922424316,58.22607141357422,9.987793922424316,58.22607141357422,9.987793922424316C58.22607141357422,9.987793922424316,68.03591141357421,9.987793922424316,68.03591141357421,9.987793922424316C68.03591141357421,9.987793922424316,68.03591141357421,26.442993922424318,68.03591141357421,26.442993922424318C68.03591141357421,26.442993922424318,68.03591141357421,26.442993922424318,68.03591141357421,26.442993922424318ZM82.27461141357422,32.138893922424316C82.27461141357422,32.138893922424316,70.88261141357422,32.138893922424316,70.88261141357422,32.138893922424316C70.88261141357422,32.138893922424316,70.88261141357422,27.708693922424317,70.88261141357422,27.708693922424317C70.88261141357422,27.708693922424317,73.73061141357422,27.708693922424317,73.73061141357422,27.708693922424317C73.73061141357422,27.708693922424317,73.73061141357422,14.418023922424316,73.73061141357422,14.418023922424316C73.73061141357422,14.418023922424316,70.88261141357422,14.418023922424316,70.88261141357422,14.418023922424316C70.88261141357422,14.418023922424316,70.88261141357422,9.987793922424316,70.88261141357422,9.987793922424316C70.88261141357422,9.987793922424316,82.27461141357422,9.987793922424316,82.27461141357422,9.987793922424316C82.27461141357422,9.987793922424316,82.27461141357422,14.418023922424316,82.27461141357422,14.418023922424316C82.27461141357422,14.418023922424316,79.42671141357422,14.418023922424316,79.42671141357422,14.418023922424316C79.42671141357422,14.418023922424316,79.42671141357422,27.708693922424317,79.42671141357422,27.708693922424317C79.42671141357422,27.708693922424317,82.27461141357422,27.708693922424317,82.27461141357422,27.708693922424317C82.27461141357422,27.708693922424317,82.27461141357422,32.138893922424316,82.27461141357422,32.138893922424316C82.27461141357422,32.138893922424316,82.27461141357422,32.138893922424316,82.27461141357422,32.138893922424316ZM104.10701141357421,31.664193922424317C99.17031141357421,32.19169392242432,94.63471141357422,32.45539392242432,90.49971141357422,32.45539392242432C88.43241141357421,32.45539392242432,86.91341141357422,31.970093922424315,85.94301141357423,30.999693922424317C84.97261141357421,30.029393922424315,84.48731141357422,28.510293922424317,84.48731141357422,26.442993922424318C84.48731141357422,26.442993922424318,84.48731141357422,16.316693922424317,84.48731141357422,16.316693922424317C84.48731141357422,14.101583922424316,84.98321141357422,12.498253922424317,85.97461141357422,11.506723922424316C86.98731141357422,10.494106922424317,88.60111141357422,9.987793922424316,90.81621141357422,9.987793922424316C90.81621141357422,9.987793922424316,102.20821141357422,9.987793922424316,102.20821141357422,9.987793922424316C102.20821141357422,9.987793922424316,102.20821141357422,14.418023922424316,102.20821141357422,14.418023922424316C102.20821141357422,14.418023922424316,92.08201141357422,14.418023922424316,92.08201141357422,14.418023922424316C90.81621141357422,14.418023922424316,90.18341141357422,15.050903922424316,90.18341141357422,16.316693922424317C90.18341141357422,16.316693922424317,90.18341141357422,26.442993922424318,90.18341141357422,26.442993922424318C90.18341141357422,26.928093922424317,90.32051141357422,27.318393922424317,90.59471141357422,27.613693922424318C90.89001141357423,27.888093922424318,91.28031141357422,28.025193922424318,91.76561141357422,28.025193922424318C94.19171141357421,28.025193922424318,96.40681141357422,27.972393922424317,98.41091141357421,27.866893922424318C98.41091141357421,27.866893922424318,98.41091141357421,23.278493922424317,98.41091141357421,23.278493922424317C98.41091141357421,23.278493922424317,94.29711141357421,23.278493922424317,94.29711141357421,23.278493922424317C94.29711141357421,23.278493922424317,94.29711141357421,19.481143922424316,94.29711141357421,19.481143922424316C94.29711141357421,19.481143922424316,104.10701141357421,19.481143922424316,104.10701141357421,19.481143922424316C104.10701141357421,19.481143922424316,104.10701141357421,31.664193922424317,104.10701141357421,31.664193922424317C104.10701141357421,31.664193922424317,104.10701141357421,31.664193922424317,104.10701141357421,31.664193922424317ZM126.26431141357422,31.664193922424317C121.32771141357422,32.19169392242432,116.79211141357422,32.45539392242432,112.65711141357423,32.45539392242432C110.58971141357422,32.45539392242432,109.07071141357422,31.970093922424315,108.10031141357422,30.999693922424317C107.12991141357422,30.029393922424315,106.64461141357421,28.510293922424317,106.64461141357421,26.442993922424318C106.64461141357421,26.442993922424318,106.64461141357421,16.316693922424317,106.64461141357421,16.316693922424317C106.64461141357421,14.101583922424316,107.14051141357422,12.498253922424317,108.13191141357422,11.506723922424316C109.14461141357421,10.494106922424317,110.75851141357421,9.987793922424316,112.97361141357422,9.987793922424316C112.97361141357422,9.987793922424316,124.36561141357421,9.987793922424316,124.36561141357421,9.987793922424316C124.36561141357421,9.987793922424316,124.36561141357421,14.418023922424316,124.36561141357421,14.418023922424316C124.36561141357421,14.418023922424316,114.23931141357423,14.418023922424316,114.23931141357423,14.418023922424316C112.97361141357422,14.418023922424316,112.34071141357421,15.050903922424316,112.34071141357421,16.316693922424317C112.34071141357421,16.316693922424317,112.34071141357421,26.442993922424318,112.34071141357421,26.442993922424318C112.34071141357421,26.928093922424317,112.47791141357422,27.318393922424317,112.75201141357422,27.613693922424318C113.04741141357422,27.888093922424318,113.43771141357422,28.025193922424318,113.92291141357421,28.025193922424318C116.34901141357422,28.025193922424318,118.56411141357421,27.972393922424317,120.56821141357422,27.866893922424318C120.56821141357422,27.866893922424318,120.56821141357422,23.278493922424317,120.56821141357422,23.278493922424317C120.56821141357422,23.278493922424317,116.45461141357421,23.278493922424317,116.45461141357421,23.278493922424317C116.45461141357421,23.278493922424317,116.45461141357421,19.481143922424316,116.45461141357421,19.481143922424316C116.45461141357421,19.481143922424316,126.26431141357422,19.481143922424316,126.26431141357422,19.481143922424316C126.26431141357422,19.481143922424316,126.26431141357422,31.664193922424317,126.26431141357422,31.664193922424317C126.26431141357422,31.664193922424317,126.26431141357422,31.664193922424317,126.26431141357422,31.664193922424317ZM135.1309114135742,27.708693922424317C135.1309114135742,27.708693922424317,146.6812114135742,27.708693922424317,146.6812114135742,27.708693922424317C146.6812114135742,27.708693922424317,146.6812114135742,32.138893922424316,146.6812114135742,32.138893922424316C146.6812114135742,32.138893922424316,129.43501141357422,32.138893922424316,129.43501141357422,32.138893922424316C129.43501141357422,32.138893922424316,129.43501141357422,9.987793922424316,129.43501141357422,9.987793922424316C129.43501141357422,9.987793922424316,135.1309114135742,9.987793922424316,135.1309114135742,9.987793922424316C135.1309114135742,9.987793922424316,135.1309114135742,27.708693922424317,135.1309114135742,27.708693922424317C135.1309114135742,27.708693922424317,135.1309114135742,27.708693922424317,135.1309114135742,27.708693922424317ZM166.4665114135742,32.138893922424316C166.4665114135742,32.138893922424316,148.90371141357423,32.138893922424316,148.90371141357423,32.138893922424316C148.90371141357423,32.138893922424316,148.90371141357423,9.987793922424316,148.90371141357423,9.987793922424316C148.90371141357423,9.987793922424316,166.4665114135742,9.987793922424316,166.4665114135742,9.987793922424316C166.4665114135742,9.987793922424316,166.4665114135742,14.418023922424316,166.4665114135742,14.418023922424316C166.4665114135742,14.418023922424316,154.59981141357423,14.418023922424316,154.59981141357423,14.418023922424316C154.59981141357423,14.418023922424316,154.59981141357423,18.690023922424317,154.59981141357423,18.690023922424317C154.59981141357423,18.690023922424317,163.93451141357423,18.690023922424317,163.93451141357423,18.690023922424317C163.93451141357423,18.690023922424317,163.93451141357423,23.120293922424317,163.93451141357423,23.120293922424317C163.93451141357423,23.120293922424317,154.59981141357423,23.120293922424317,154.59981141357423,23.120293922424317C154.59981141357423,23.120293922424317,154.59981141357423,27.708693922424317,154.59981141357423,27.708693922424317C154.59981141357423,27.708693922424317,166.4665114135742,27.708693922424317,166.4665114135742,27.708693922424317C166.4665114135742,27.708693922424317,166.4665114135742,32.138893922424316,166.4665114135742,32.138893922424316C166.4665114135742,32.138893922424316,166.4665114135742,32.138893922424316,166.4665114135742,32.138893922424316Z" fill="#8896AB" fill-opacity="1"/></g><g clip-path="url(#master_svg0_0_354)"><g><path d="M2.407767656251455,7.551159531249564C3.0501576562514554,7.553949531249564,3.6653876562514554,7.810389531249563,4.119627656251455,8.264619531249563C4.573857656251455,8.718859531249564,4.830317656251455,9.334119531249563,4.833097656251455,9.976489531249564C4.850107656251455,10.606319531249563,5.112317656251455,11.204619531249563,5.563807656251456,11.644119531249563C6.015297656251455,12.083519531249564,6.620457656251455,12.329519531249563,7.250507656251455,12.329519531249563C7.880577656251456,12.329519531249563,8.485717656251456,12.083519531249564,8.937227656251455,11.644119531249563C9.388717656251455,11.204619531249563,9.650897656251455,10.606319531249563,9.667917656251456,9.976489531249564C9.667917656251456,9.976489531249564,9.667917656251456,2.4253495312495637,9.667917656251456,2.4253495312495637C9.670697656251455,1.7829695312495635,9.927067656251456,1.1676895312495634,10.381297656251455,0.7134505312495635C10.835497656251455,0.2592155312495634,11.450897656251454,0.0028044512495634427,12.093197656251455,0.000019531249563442543C12.093197656251455,0.000019531249563442543,12.093197656251455,0.000019531249563442543,12.093197656251455,0.000019531249563442543C12.733197656251455,0.006049671249563442,13.344897656251455,0.2640085312495634,13.795897656251455,0.7179935312495634C14.246897656251456,1.1719795312495633,14.500797656251455,1.7854195312495635,14.502697656251454,2.4253495312495637C14.502697656251454,2.4253495312495637,14.502697656251454,18.279119531249563,14.502697656251454,18.279119531249563C14.493897656251455,18.602019531249564,14.549997656251454,18.923519531249564,14.667597656251456,19.224319531249563C14.785097656251455,19.525219531249565,14.961797656251456,19.79951953124956,15.187197656251454,20.031019531249562C15.412497656251455,20.262619531249562,15.681797656251454,20.446619531249564,15.979597656251455,20.572319531249562C16.277197656251456,20.697919531249564,16.596997656251457,20.762719531249562,16.920097656251457,20.762719531249562C17.243097656251454,20.762719531249562,17.562897656251454,20.697919531249564,17.860497656251454,20.572319531249562C18.158297656251456,20.446619531249564,18.427697656251457,20.262619531249562,18.653097656251454,20.031019531249562C18.878397656251455,19.79951953124956,19.054997656251455,19.525219531249565,19.172497656251455,19.224319531249563C19.290197656251454,18.923519531249564,19.346297656251455,18.602019531249564,19.337497656251454,18.279119531249563C19.337497656251454,18.279119531249563,19.337497656251454,9.976489531249564,19.337497656251454,9.976489531249564C19.340197656251455,9.334119531249563,19.596697656251454,8.718859531249564,20.050997656251454,8.264619531249563C20.505197656251454,7.810389531249563,21.120397656251455,7.553949531249564,21.762797656251454,7.551159531249564C21.762797656251454,7.551159531249564,21.762797656251454,7.551159531249564,21.762797656251454,7.551159531249564C22.402797656251455,7.557199531249563,23.014497656251454,7.815179531249563,23.465397656251454,8.269169531249563C23.916497656251455,8.723149531249563,24.170397656251456,9.336569531249564,24.172197656251456,9.976489531249564C24.172197656251456,9.976489531249564,24.172197656251456,18.279119531249563,24.172197656251456,18.279119531249563C24.172197656251456,18.920019531249565,24.426897656251455,19.534619531249565,24.880097656251454,19.987819531249563C25.333297656251457,20.441019531249562,25.947897656251456,20.695519531249563,26.588697656251455,20.695519531249563C27.229597656251457,20.695519531249563,27.844297656251456,20.441019531249562,28.297597656251455,19.987819531249563C28.750597656251454,19.534619531249565,29.005297656251454,18.920019531249565,29.005297656251454,18.279119531249563C29.005297656251454,18.279119531249563,29.005297656251454,2.4253495312495637,29.005297656251454,2.4253495312495637C29.008097656251454,1.7826695312495635,29.264797656251456,1.1671095312495634,29.719297656251456,0.7128265312495634C30.173897656251455,0.2585415312495634,30.789697656251455,0.0023403812495634427,31.432397656251457,0.000019531249563442543C31.432397656251457,0.000019531249563442543,31.432397656251457,0.000019531249563442543,31.432397656251457,0.000019531249563442543C32.07299765625145,0.0032864412495634426,32.68619765625146,0.2604085312495634,33.13739765625146,0.7150445312495635C33.58879765625146,1.1696795312495634,33.841497656251455,1.7847295312495635,33.840197656251455,2.4253495312495637C33.840197656251455,2.4253495312495637,33.840197656251455,9.976489531249564,33.840197656251455,9.976489531249564C33.857097656251455,10.606319531249563,34.11919765625146,11.204619531249563,34.570697656251454,11.644119531249563C35.02229765625145,12.083519531249564,35.62729765625146,12.329519531249563,36.257397656251456,12.329519531249563C36.88739765625146,12.329519531249563,37.492797656251454,12.083519531249564,37.944197656251454,11.644119531249563C38.39569765625146,11.204619531249563,38.657797656251454,10.606319531249563,38.67489765625145,9.976489531249564C38.67759765625146,9.333819531249564,38.934197656251456,8.718279531249564,39.38889765625146,8.263989531249564C39.84349765625146,7.809709531249563,40.45929765625146,7.553489531249563,41.101997656251456,7.551159531249564C41.101997656251456,7.551159531249564,41.101997656251456,7.551159531249564,41.101997656251456,7.551159531249564C41.742597656251455,7.554429531249563,42.355797656251454,7.8115795312495635,42.807197656251454,8.266219531249563C43.258397656251454,8.720849531249563,43.51109765625146,9.335869531249564,43.50959765625146,9.976489531249564C43.50959765625146,9.976489531249564,43.50959765625146,33.55241953124956,43.50959765625146,33.55241953124956C43.50729765625145,34.190319531249564,43.25279765625145,34.801419531249564,42.801897656251455,35.25251953124956C42.35079765625146,35.703419531249565,41.739797656251454,35.95781953124956,41.101997656251456,35.960219531249564C41.101997656251456,35.960219531249564,41.101997656251456,35.960219531249564,41.101997656251456,35.960219531249564C40.461997656251455,35.95881953124956,39.84839765625146,35.70541953124956,39.39409765625145,35.25461953124957C38.93979765625146,34.80391953124956,38.681397656251455,34.19241953124956,38.67489765625145,33.55241953124956C38.683497656251454,33.22961953124956,38.62749765625146,32.90811953124956,38.50999765625146,32.607119531249566C38.392397656251454,32.30621953124956,38.21579765625145,32.031919531249564,37.99039765625145,31.800419531249563C37.76499765625145,31.569019531249563,37.49549765625145,31.385019531249565,37.197897656251456,31.259319531249563C36.90029765625145,31.133619531249565,36.580397656251456,31.068919531249563,36.257397656251456,31.068919531249563C35.934397656251456,31.068919531249563,35.614597656251455,31.133619531249565,35.31699765625145,31.259319531249563C35.019397656251456,31.385019531249565,34.749897656251456,31.569019531249563,34.52459765625146,31.800419531249563C34.299297656251454,32.031919531249564,34.122497656251454,32.30621953124956,34.004997656251454,32.607119531249566C33.887297656251455,32.90811953124956,33.831397656251454,33.22961953124956,33.840197656251455,33.55241953124956C33.840197656251455,33.55241953124956,33.840197656251455,41.09481953124956,33.840197656251455,41.09481953124956C33.840597656251454,41.41111953124956,33.778597656251456,41.724619531249566,33.657797656251454,42.01691953124956C33.536897656251455,42.30941953124956,33.359697656251456,42.57511953124956,33.13609765625146,42.79891953124957C32.91239765625146,43.022719531249564,32.646697656251455,43.200219531249566,32.35439765625146,43.32121953124956C32.06209765625145,43.44241953124956,31.748697656251455,43.504519531249564,31.432397656251457,43.50421953124956C30.791497656251455,43.50531953124956,30.176497656251456,43.25211953124956,29.721897656251457,42.800619531249566C29.267297656251454,42.348919531249564,29.010297656251456,41.735519531249565,29.006897656251454,41.09481953124956C29.006897656251454,41.09481953124956,29.006897656251454,25.219919531249563,29.006897656251454,25.219919531249563C29.006897656251454,24.579019531249564,28.752397656251457,23.964319531249565,28.299397656251454,23.511119531249562C27.846197656251455,23.058119531249563,27.231397656251456,22.803419531249563,26.590597656251454,22.803419531249563C25.949697656251455,22.803419531249563,25.334997656251456,23.058119531249563,24.881697656251454,23.511119531249562C24.428497656251455,23.964319531249565,24.173997656251455,24.579019531249564,24.173997656251455,25.219919531249563C24.173997656251455,25.219919531249563,24.173997656251455,33.54021953124956,24.173997656251455,33.54021953124956C24.168397656251454,34.177319531249566,23.912897656251456,34.78671953124957,23.462097656251455,35.237219531249565C23.011397656251454,35.68751953124956,22.401697656251454,35.94281953124956,21.764597656251457,35.947819531249564C21.764597656251457,35.947819531249564,21.764597656251457,35.947819531249564,21.764597656251457,35.947819531249564C21.124897656251456,35.94601953124956,20.511697656251457,35.69221953124956,20.057797656251456,35.24161953124956C19.603897656251455,34.791119531249564,19.345797656251456,34.17971953124956,19.339297656251457,33.54021953124956C19.339297656251457,33.54021953124956,19.339297656251457,25.219919531249563,19.339297656251457,25.219919531249563C19.322197656251454,24.590119531249563,19.059997656251454,23.991719531249565,18.608597656251455,23.552219531249563C18.156997656251455,23.112819531249563,17.551897656251455,22.866919531249565,16.921897656251456,22.866919531249565C16.291897656251454,22.866919531249565,15.686497656251456,23.112819531249563,15.235097656251455,23.552219531249563C14.783597656251455,23.991719531249565,14.521497656251455,24.590119531249563,14.504497656251456,25.219919531249563C14.504497656251456,25.219919531249563,14.504497656251456,41.09481953124956,14.504497656251456,41.09481953124956C14.502597656251455,41.73321953124956,14.248097656251455,42.345119531249566,13.796697656251455,42.796519531249565C13.345197656251456,43.247919531249565,12.733397656251455,43.502419531249565,12.094997656251456,43.50421953124956C12.094997656251456,43.50421953124956,12.094997656251456,43.50421953124956,12.094997656251456,43.50421953124956C11.453997656251456,43.50571953124956,10.838797656251455,43.25271953124956,10.384097656251456,42.801019531249565C9.929377656251456,42.34931953124956,9.672437656251455,41.735719531249565,9.669637656251455,41.09481953124956C9.669637656251455,41.09481953124956,9.669637656251455,33.54551953124956,9.669637656251455,33.54551953124956C9.678367656251455,33.22251953124956,9.622277656251455,32.90111953124956,9.504697656251455,32.600219531249564C9.387137656251456,32.29921953124956,9.210527656251456,32.024919531249566,8.985187656251455,31.79341953124956C8.759857656251455,31.561919531249565,8.490377656251455,31.377819531249564,8.192747656251456,31.252219531249562C7.895107656251455,31.126519531249563,7.575297656251455,31.061819531249565,7.252227656251455,31.061819531249565C6.929157656251455,31.061819531249565,6.609367656251456,31.126519531249563,6.311737656251455,31.252219531249562C6.014097656251455,31.377819531249564,5.744697656251455,31.561919531249565,5.519357656251455,31.79341953124956C5.294027656251455,32.024919531249566,5.117317656251455,32.29921953124956,4.999757656251456,32.600219531249564C4.8821976562514555,32.90111953124956,4.826097656251455,33.22251953124956,4.834817656251455,33.54551953124956C4.828337656251455,34.185019531249566,4.570217656251455,34.79641953124956,4.116277656251455,35.24701953124956C3.6623376562514554,35.69751953124956,3.0491276562514553,35.95131953124957,2.4094876562514553,35.95311953124956C1.7723476562514553,35.94811953124956,1.162737656251455,35.69281953124956,0.7120216562514552,35.242319531249564C0.2613056562514552,34.792019531249565,0.005630256251455192,34.182619531249564,0.00009765625145519152,33.54551953124956C0.00009765625145519152,33.54551953124956,0.00009765625145519152,9.976489531249564,0.00009765625145519152,9.976489531249564C0.0019254762514551915,9.336569531249564,0.2558396562514552,8.723149531249563,0.7068546562514552,8.269169531249563C1.1578676562514552,7.815179531249563,1.7695976562514553,7.557199531249563,2.4094876562514553,7.551159531249564C2.4094876562514553,7.551159531249564,2.407767656251455,7.551159531249564,2.407767656251455,7.551159531249564C2.407767656251455,7.551159531249564,2.407767656251455,7.551159531249564,2.407767656251455,7.551159531249564ZM9.667917656251456,16.929619531249564C9.676637656251454,16.606819531249563,9.620547656251455,16.285319531249563,9.502987656251456,15.984319531249563C9.385417656251455,15.683419531249564,9.208727656251455,15.409119531249564,8.983377656251456,15.177719531249563C8.758037656251455,14.946119531249563,8.488657656251455,14.762119531249564,8.191017656251455,14.636519531249563C7.893377656251455,14.510919531249563,7.573577656251455,14.446119531249563,7.250507656251455,14.446119531249563C6.927437656251455,14.446119531249563,6.607647656251455,14.510919531249563,6.3100076562514555,14.636519531249563C6.012377656251455,14.762119531249564,5.742897656251455,14.946119531249563,5.517557656251455,15.177719531249563C5.292207656251455,15.409119531249564,5.115597656251455,15.683419531249564,4.998037656251455,15.984319531249563C4.880477656251455,16.285319531249563,4.824377656251455,16.606819531249563,4.833097656251455,16.929619531249564C4.833097656251455,16.929619531249564,4.833097656251455,26.599219531249563,4.833097656251455,26.599219531249563C4.850107656251455,27.229119531249562,5.112317656251455,27.827419531249564,5.563807656251456,28.266919531249563C6.015297656251455,28.706419531249562,6.620457656251455,28.952219531249565,7.250507656251455,28.952219531249565C7.880577656251456,28.952219531249565,8.485717656251456,28.706419531249562,8.937227656251455,28.266919531249563C9.388717656251455,27.827419531249564,9.650897656251455,27.229119531249562,9.667917656251456,26.599219531249563C9.667917656251456,26.599219531249563,9.667917656251456,16.929619531249564,9.667917656251456,16.929619531249564C9.667917656251456,16.929619531249564,9.667917656251456,16.929619531249564,9.667917656251456,16.929619531249564ZM33.83299765625146,26.599219531249563C33.83299765625146,26.599219531249563,33.83299765625146,16.929619531249564,33.83299765625146,16.929619531249564C33.82429765625145,16.606819531249563,33.88039765625145,16.285319531249563,33.99789765625145,15.984319531249563C34.11539765625145,15.683419531249564,34.29219765625145,15.409119531249564,34.51749765625146,15.177719531249563C34.742797656251454,14.946119531249563,35.012297656251455,14.762119531249564,35.30989765625146,14.636519531249563C35.60759765625146,14.510919531249563,35.927297656251454,14.446119531249563,36.250497656251454,14.446119531249563C36.573497656251455,14.446119531249563,36.89319765625145,14.510919531249563,37.19089765625146,14.636519531249563C37.488497656251454,14.762119531249564,37.757997656251455,14.946119531249563,37.98329765625145,15.177719531249563C38.20869765625145,15.409119531249564,38.38529765625145,15.683419531249564,38.502897656251456,15.984319531249563C38.620397656251455,16.285319531249563,38.676497656251456,16.606819531249563,38.66779765625146,16.929619531249564C38.66779765625146,16.929619531249564,38.66779765625146,26.599219531249563,38.66779765625146,26.599219531249563C38.65069765625145,27.229119531249562,38.388597656251456,27.827419531249564,37.937197656251456,28.266919531249563C37.48569765625145,28.706419531249562,36.88049765625146,28.952219531249565,36.250497656251454,28.952219531249565C35.62029765625145,28.952219531249565,35.015097656251456,28.706419531249562,34.56359765625145,28.266919531249563C34.11219765625145,27.827419531249564,33.84999765625145,27.229119531249562,33.83299765625146,26.599219531249563C33.83299765625146,26.599219531249563,33.83299765625146,26.599219531249563,33.83299765625146,26.599219531249563Z" fill-rule="evenodd" fill="#8896AB" fill-opacity="1"/></g></g></g></svg>