<svg xmlns="http://www.w3.org/2000/svg" xmlns:xlink="http://www.w3.org/1999/xlink" fill="none" version="1.1" width="168.11181640625" height="39.55572509765625" viewBox="0 0 168.11181640625 39.55572509765625"><defs><clipPath id="master_svg0_0_381"><rect x="0" y="0" width="31.64457130432129" height="39.55571365356445" rx="0"/></clipPath></defs><g><g clip-path="url(#master_svg0_0_381)"><g><path d="M4.068779285540374,37.02843560867309C4.068779285540374,37.02843560867309,7.537399285540373,35.0397356086731,7.537399285540373,35.0397356086731C7.537399285540373,35.0397356086731,8.930029285540373,34.240635608673095,8.930029285540373,34.240635608673095C8.930029285540373,34.240635608673095,10.297279285540373,33.452335608673096,10.297279285540373,33.452335608673096C10.297279285540373,33.452335608673096,12.442479285540374,32.2229356086731,12.442479285540374,32.2229356086731C12.442479285540374,32.2229356086731,15.849579285540374,30.277635608673094,15.849579285540374,30.277635608673094C15.849579285540374,30.277635608673094,19.260079285540375,32.2229356086731,19.260079285540375,32.2229356086731C19.260079285540375,32.2229356086731,21.401879285540375,33.452335608673096,21.401879285540375,33.452335608673096C21.401879285540375,33.452335608673096,22.768879285540372,34.240635608673095,22.768879285540372,34.240635608673095C22.768879285540372,34.240635608673095,24.165279285540375,35.0397356086731,24.165279285540375,35.0397356086731C24.165279285540375,35.0397356086731,27.561279285540373,36.99953560867309,27.561279285540373,36.99953560867309C27.561279285540373,36.99953560867309,28.593779285540375,37.585435608673095,28.593779285540375,37.585435608673095C28.593779285540375,37.585435608673095,29.600979285540372,38.160335608673094,29.600979285540372,38.160335608673094C29.600979285540372,38.160335608673094,31.644579285540374,39.331835608673096,31.644579285540374,39.331835608673096C31.644579285540374,39.331835608673096,31.644579285540374,20.507435608673095,31.644579285540374,20.507435608673095C31.644579285540374,20.507435608673095,27.561279285540373,18.160735608673097,27.561279285540373,18.160735608673097C27.561279285540373,18.160735608673097,27.561279285540373,32.338635608673094,27.561279285540373,32.338635608673094C27.561279285540373,32.338635608673094,24.797879285540372,30.747635608673097,24.797879285540372,30.747635608673097C24.797879285540372,30.747635608673097,20.725279285540374,28.419035608673095,20.725279285540374,28.419035608673095C20.725279285540374,28.419035608673095,19.172679285540372,27.515035608673095,19.172679285540372,27.515035608673095C19.172679285540372,27.515035608673095,17.893079285540374,26.791935608673096,17.893079285540374,26.791935608673096C17.893079285540374,26.791935608673096,17.893079285540374,3.4150356086730955,17.893079285540374,3.4150356086730955C17.893079285540374,3.4150356086730955,13.809579285540373,3.4150356086730955,13.809579285540373,3.4150356086730955C13.809579285540373,3.4150356086730955,13.809579285540373,27.348735608673095,13.809579285540373,27.348735608673095C13.809579285540373,27.348735608673095,10.973579285540373,28.979535608673096,10.973579285540373,28.979535608673096C10.973579285540373,28.979535608673096,6.904819285540373,31.3261356086731,6.904819285540373,31.3261356086731C6.904819285540373,31.3261356086731,4.068779285540374,32.9425356086731,4.068779285540374,32.9425356086731C4.068779285540374,32.9425356086731,4.068779285540374,18.189635608673097,4.068779285540374,18.189635608673097C4.068779285540374,18.189635608673097,-0.00012071445962646976,20.521835608673097,-0.00012071445962646976,20.521835608673097C-0.00012071445962646976,20.521835608673097,-0.00012071445962646976,39.360735608673096,-0.00012071445962646976,39.360735608673096C-0.00012071445962646976,39.360735608673096,2.0288192855403735,38.189235608673094,2.0288192855403735,38.189235608673094C2.0288192855403735,38.189235608673094,3.0470192855403737,37.6142356086731,3.0470192855403737,37.6142356086731C3.0470192855403737,37.6142356086731,4.068779285540374,37.02843560867309,4.068779285540374,37.02843560867309C4.068779285540374,37.02843560867309,4.068779285540374,37.02843560867309,4.068779285540374,37.02843560867309ZM24.794179285540373,27.500535608673097C24.794179285540373,27.500535608673097,24.794179285540373,-0.8083643913269043,24.794179285540373,-0.8083643913269043C24.794179285540373,-0.8083643913269043,20.721779285540375,-0.8083643913269043,20.721779285540375,-0.8083643913269043C20.721779285540375,-0.8083643913269043,20.721779285540375,25.172035608673095,20.721779285540375,25.172035608673095C20.721779285540375,25.172035608673095,24.794179285540373,27.500535608673097,24.794179285540373,27.500535608673097C24.794179285540373,27.500535608673097,24.794179285540373,27.500535608673097,24.794179285540373,27.500535608673097ZM10.977279285540373,25.714335608673096C10.977279285540373,25.714335608673096,10.977279285540373,7.634815608673096,10.977279285540373,7.634815608673096C10.977279285540373,7.634815608673096,6.908379285540374,7.634815608673096,6.908379285540374,7.634815608673096C6.908379285540374,7.634815608673096,6.908379285540374,28.061135608673094,6.908379285540374,28.061135608673094C6.908379285540374,28.061135608673094,10.977279285540373,25.714335608673096,10.977279285540373,25.714335608673096C10.977279285540373,25.714335608673096,10.977279285540373,25.714335608673096,10.977279285540373,25.714335608673096Z" fill-rule="evenodd" fill="#8896AB" fill-opacity="1"/></g></g><g><path d="M143.92722770385743,10.686790466308594C147.92192770385742,10.686790466308594,150.93892770385742,12.979230466308593,151.4199277038574,16.965710466308593L147.7279277038574,16.965710466308593C147.44992770385744,15.069390466308594,146.0089277038574,13.914750466308593,144.01192770385742,13.914750466308593C141.33982770385742,13.914750466308593,139.58692770385744,15.962770466308594,139.58692770385744,19.55312046630859C139.58692770385744,23.244590466308594,141.3651277038574,25.191490466308593,143.98592770385744,25.191490466308593C145.93292770385742,25.191490466308593,147.38292770385743,24.129590466308592,147.7279277038574,22.283790466308595L151.4199277038574,22.300690466308595C151.02392770385742,25.478090466308593,148.35192770385743,28.419390466308595,143.92722770385743,28.419390466308595C139.30882770385742,28.419390466308595,135.88692770385742,25.18309046630859,135.88692770385742,19.55312046630859C135.88692770385742,13.906310466308593,139.36782770385742,10.686790466308594,143.92722770385743,10.686790466308594ZM166.89792770385742,15.886920466308593L163.39992770385743,15.886920466308593C163.26592770385741,14.530000466308593,162.19492770385742,13.737760466308593,160.45092770385742,13.737760466308593C158.66392770385744,13.737760466308593,157.67792770385742,14.555280466308593,157.67792770385742,15.667780466308594C157.65292770385742,16.90672046630859,158.9079277038574,17.462970466308594,160.4079277038574,17.808520466308593L161.95892770385743,18.179360466308594C164.95992770385743,18.853600466308592,167.12592770385743,20.379080466308594,167.1339277038574,23.253090466308592C167.12592770385743,26.413590466308595,164.64792770385742,28.427890466308593,160.43392770385742,28.427890466308593C156.24492770385743,28.427890466308593,153.57292770385743,26.497790466308594,153.48092770385742,22.764190466308595L157.01192770385742,22.764190466308595C157.12992770385742,24.491990466308593,158.49492770385743,25.368490466308593,160.39192770385742,25.368490466308593C162.24592770385743,25.368490466308593,163.44292770385744,24.508890466308593,163.45092770385742,23.244590466308594C163.44292770385744,22.081590466308594,162.39692770385741,21.542190466308593,160.51792770385742,21.087090466308595L158.6389277038574,20.615070466308595C155.7229277038574,19.91554046630859,153.92692770385742,18.45749046630859,153.93592770385743,15.912200466308594C153.91892770385743,12.776950466308595,156.6919277038574,10.686790466308594,160.47592770385742,10.686790466308594C164.3189277038574,10.686790466308594,166.84692770385743,12.810660466308594,166.89792770385742,15.886920466308593ZM52.45340770385742,28.183490466308594L48.896777703857424,28.183490466308594L43.95792770385742,10.922777466308593L47.94439770385742,10.922777466308593L50.801507703857425,22.915890466308596L50.94478770385742,22.915890466308596L54.09682770385742,10.922777466308593L57.510227703857424,10.922777466308593L60.65392770385742,22.941190466308594L60.80552770385742,22.941190466308594L63.66272770385742,10.922777466308593L67.64922770385742,10.922777466308593L62.71032770385742,28.183490466308594L59.15372770385742,28.183490466308594L55.86672770385742,16.898280466308595L55.73192770385742,16.898280466308595L52.45340770385742,28.183490466308594ZM81.26682770385742,28.183490466308594L69.60242770385742,28.183490466308594L69.60242770385742,10.922777466308593L81.23302770385743,10.922777466308593L81.23302770385743,13.931600466308595L73.25172770385743,13.931600466308595L73.25172770385743,18.044500466308595L80.63472770385742,18.044500466308595L80.63472770385742,21.053290466308596L73.25172770385743,21.053290466308596L73.25172770385743,25.174690466308594L81.26682770385742,25.174690466308594L81.26682770385742,28.183490466308594ZM95.18362770385743,28.183490466308594L84.13442770385743,28.183490466308594L84.13442770385743,10.922777466308593L87.78382770385741,10.922777466308593L87.78382770385741,25.174690466308594L95.18362770385743,25.174690466308594L95.18362770385743,28.183490466308594ZM100.68292770385742,22.081590466308594L94.38722770385742,10.922777466308593L98.47482770385741,10.922777466308593L102.41062770385741,18.356350466308594L102.57922770385741,18.356350466308594L106.51512770385742,10.922777466308593L110.60282770385743,10.922777466308593L104.30692770385741,22.081590466308594L104.30692770385741,28.183490466308594L100.68292770385742,28.183490466308594L100.68292770385742,22.081590466308594ZM118.31242770385742,13.931600466308595L113.02792770385742,13.931600466308595L113.02792770385742,10.922777466308593L127.20392770385742,10.922777466308593L127.20392770385742,13.931600466308595L121.91952770385743,13.931600466308595L121.91952770385743,28.183490466308594L118.31242770385742,28.183490466308594L118.31242770385742,13.931600466308595ZM129.53852770385743,10.922777466308593L133.18792770385744,10.922777466308593L133.18792770385744,28.183490466308594L129.53852770385743,28.183490466308594L129.53852770385743,10.922777466308593Z" fill-rule="evenodd" fill="#8896AB" fill-opacity="1"/></g></g></svg>