<svg xmlns="http://www.w3.org/2000/svg" xmlns:xlink="http://www.w3.org/1999/xlink" fill="none" version="1.1" width="165.8558349609375" height="43.51129150390625" viewBox="0 0 165.8558349609375 43.51129150390625"><defs><clipPath id="master_svg0_0_367"><rect x="0" y="0" width="43.64004135131836" height="43.51128387451172" rx="0"/></clipPath></defs><g><g clip-path="url(#master_svg0_0_367)"><g><path d="M24.211458206176758,42.68213777770996C28.920538206176758,42.132337777709964,33.30630820617676,40.00943777770996,36.658758206176756,36.65693777770996C40.01115820617676,33.30454777770996,42.13405820617676,28.91881777770996,42.68385820617676,24.20973777770996C42.68385820617676,24.20973777770996,34.769558206176754,24.20973777770996,34.769558206176754,24.20973777770996C34.27035820617676,26.82318777770996,32.99646820617676,29.22604777770996,31.11354820617676,31.10590777770996C29.230618206176757,32.98578777770996,26.825708206176756,34.25573777770996,24.211458206176758,34.75063777770996C24.211458206176758,34.75063777770996,24.211458206176758,42.68213777770996,24.211458206176758,42.68213777770996C24.211458206176758,42.68213777770996,24.211458206176758,42.68213777770996,24.211458206176758,42.68213777770996Z" fill-rule="evenodd" fill="#8896AB" fill-opacity="1"/></g><g><path d="M31.241593816909194,2.942535232329387C31.241593816909194,2.942535232329387,31.291493816909195,2.9099352323293872,31.291493816909195,2.9099352323293872C36.412393816909194,-0.03259366767061278,40.55339381690919,-0.8978727676706127,42.481293816909194,1.0317652323293873C47.9353938169092,6.484195232329387,32.55489381690919,23.444105232329388,27.998593816909192,28.00040523232939C25.258593816909194,30.748405232329386,22.354793816909194,33.328305232329384,19.303193816909193,35.725805232329385C19.303193816909193,35.725805232329385,19.303193816909193,42.677005232329385,19.303193816909193,42.677005232329385C16.849893816909194,42.39840523232939,14.466093816909193,41.68330523232939,12.264493816909194,40.565305232329386C12.264493816909194,40.565305232329386,12.214693816909193,40.598005232329385,12.214693816909193,40.598005232329385C7.093623816909194,43.54050523232939,2.954563816909194,44.405805232329385,1.024923816909194,42.486305232329386C-1.618876183090806,39.84260523232939,1.474663816909194,33.75670523232939,2.937343816909194,31.245105232329387C1.826323816909194,29.040705232329387,1.111603816909194,26.658205232329387,0.825758816909194,24.206305232329388C0.825758816909194,24.206305232329388,8.757143816909194,24.206305232329388,8.757143816909194,24.206305232329388C9.103963816909195,26.047105232329386,9.837633816909195,27.793405232329388,10.909593816909194,29.32970523232939C11.981493816909193,30.865905232329386,13.367193816909195,32.15720523232939,14.975293816909193,33.118105232329384C14.060293816909194,33.78240523232939,13.129693816909194,34.41420523232939,12.164893816909194,35.006605232329385C10.751993816909193,35.90440523232939,9.289383816909194,36.75240523232939,7.7752138169091936,37.51640523232939C6.590173816909194,36.46690523232939,5.530223816909194,35.28430523232939,4.616373816909194,33.99190523232939C3.019783816909194,37.06830523232939,2.487603816909194,39.329205232329386,3.335673816909194,40.172105232329386C6.976933816909194,43.777405232329386,23.354893816909193,28.73340523232939,26.048393816909194,26.03980523232939C28.916193816909193,23.175805232329388,31.598593816909194,20.132205232329387,34.079393816909196,16.92720523232939C33.26189381690919,14.838105232329386,31.926593816909193,12.991205232329387,30.198893816909194,11.560105232329388C28.470993816909193,10.129105232329387,26.407693816909195,9.161035232329388,24.202893816909192,8.746925232329387C24.202893816909192,8.746925232329387,24.202893816909192,0.8154522323293872,24.202893816909192,0.8154522323293872C26.656793816909193,1.0915352323293872,29.040993816909193,1.8067952323293872,31.241593816909194,2.927085232329387C31.241593816909194,2.927085232329387,31.241593816909194,2.942535232329387,31.241593816909194,2.942535232329387C31.241593816909194,2.942535232329387,31.241593816909194,2.942535232329387,31.241593816909194,2.942535232329387ZM38.8897938169092,9.510875232329386C40.48639381690919,6.434435232329387,41.01849381690919,4.173455232329387,40.17049381690919,3.330525232329387C39.32239381690919,2.487605232329387,37.080393816909194,3.031815232329387,34.002093816909195,4.628405232329388C35.8944938169092,5.971355232329387,37.546793816909194,7.623705232329387,38.8897938169092,9.516025232329387C38.8897938169092,9.516025232329387,38.8897938169092,9.510875232329386,38.8897938169092,9.510875232329386C38.8897938169092,9.510875232329386,38.8897938169092,9.510875232329386,38.8897938169092,9.510875232329386Z" fill-rule="evenodd" fill="#8896AB" fill-opacity="1"/></g><g><path d="M19.30671798219681,0.8309078216552734C14.597517982196807,1.3810558216552735,10.211747982196808,3.5043378216552736,6.859327982196808,6.857067821655273C3.506927982196808,10.209787821655274,1.3840269821968079,14.595707821655273,0.8343179821968079,19.305007821655273C0.8343179821968079,19.305007821655273,8.765787982196809,19.305007821655273,8.765787982196809,19.305007821655273C9.258247982196808,16.691307821655272,10.527647982196807,14.286807821655273,12.408217982196808,12.405907821655273C14.288817982196807,10.525077821655273,16.693017982196807,9.255227821655273,19.30671798219681,8.762347821655274C19.30671798219681,8.762347821655274,19.30671798219681,0.8309078216552734,19.30671798219681,0.8309078216552734C19.30671798219681,0.8309078216552734,19.30671798219681,0.8309078216552734,19.30671798219681,0.8309078216552734Z" fill-rule="evenodd" fill="#8896AB" fill-opacity="1"/></g></g><g><path d="M79.4204301208496,26.792770208740233C79.4204301208496,27.709470208740235,79.24533012084962,28.574770208740233,78.89503012084961,29.388670208740233C78.55513012084961,30.192070208740233,78.08133012084961,30.897670208740234,77.4735301208496,31.505470208740235C76.87613012084961,32.10297020874023,76.1705301208496,32.576770208740236,75.35663012084962,32.92697020874023C74.5532301208496,33.26687020874023,73.69303012084961,33.43687020874023,72.77633012084961,33.43687020874023C71.9522301208496,33.43687020874023,71.15903012084961,33.29277020874024,70.39683012084961,33.00427020874024C69.6448301208496,32.715870208740235,68.96493012084962,32.29347020874023,68.35723012084961,31.737270208740235C67.74943012084961,32.29347020874023,67.0644201208496,32.715870208740235,66.3021501208496,33.00427020874024C65.5398901208496,33.29277020874024,64.7467201208496,33.43687020874023,63.92264012084961,33.43687020874023C63.00585012084961,33.43687020874023,62.140580120849606,33.26687020874023,61.32679012084961,32.92697020874023C60.52332012084961,32.576770208740236,59.81771012084961,32.10297020874023,59.20996012084961,31.505470208740235C58.61250012084961,30.897670208740234,58.13865912084961,30.192070208740233,57.78842712084961,29.388670208740233C57.44849612084961,28.574770208740233,57.27853012084961,27.709470208740235,57.27853012084961,26.792770208740233C57.27853012084961,26.792770208740233,57.27853012084961,10.970530208740234,57.27853012084961,10.970530208740234C57.27853012084961,10.970530208740234,61.71309012084961,10.970530208740234,61.71309012084961,10.970530208740234C61.71309012084961,10.970530208740234,61.71309012084961,26.792770208740233,61.71309012084961,26.792770208740233C61.71309012084961,27.101870208740234,61.76974012084961,27.395370208740236,61.88305012084961,27.673470208740234C61.99636012084961,27.941370208740235,62.15088012084961,28.178270208740233,62.34659012084961,28.384270208740233C62.55261012084961,28.579970208740235,62.78953012084961,28.734470208740234,63.05736012084961,28.847870208740236C63.32519012084961,28.961170208740235,63.61361012084961,29.017770208740234,63.92264012084961,29.017770208740234C64.23166012084961,29.017770208740234,64.5201001208496,28.961170208740235,64.7879101208496,28.847870208740236C65.0557401208496,28.734470208740234,65.2875201208496,28.579970208740235,65.48323012084961,28.384270208740233C65.68925012084961,28.178270208740233,65.84891012084961,27.941370208740235,65.96222012084961,27.673470208740234C66.0755301208496,27.395370208740236,66.13218012084961,27.101870208740234,66.13218012084961,26.792770208740233C66.13218012084961,26.792770208740233,66.13218012084961,10.970530208740234,66.13218012084961,10.970530208740234C66.13218012084961,10.970530208740234,70.56673012084961,10.970530208740234,70.56673012084961,10.970530208740234C70.56673012084961,10.970530208740234,70.56673012084961,26.792770208740233,70.56673012084961,26.792770208740233C70.56673012084961,27.101870208740234,70.6234301208496,27.395370208740236,70.73673012084961,27.673470208740234C70.85003012084961,27.941370208740235,71.00453012084961,28.178270208740233,71.20023012084961,28.384270208740233C71.40623012084961,28.579970208740235,71.64323012084961,28.734470208740234,71.9110301208496,28.847870208740236C72.17883012084961,28.961170208740235,72.4672301208496,29.017770208740234,72.77633012084961,29.017770208740234C73.08523012084962,29.017770208740234,73.37383012084962,28.961170208740235,73.64163012084961,28.847870208740236C73.9094301208496,28.734470208740234,74.14113012084961,28.579970208740235,74.33693012084962,28.384270208740233C74.5429301208496,28.178270208740233,74.7026301208496,27.941370208740235,74.81583012084961,27.673470208740234C74.93953012084961,27.395370208740236,75.00123012084961,27.101870208740234,75.00123012084961,26.792770208740233C75.00123012084961,26.792770208740233,75.00123012084961,10.970530208740234,75.00123012084961,10.970530208740234C75.00123012084961,10.970530208740234,79.4204301208496,10.970530208740234,79.4204301208496,10.970530208740234C79.4204301208496,10.970530208740234,79.4204301208496,26.792770208740233,79.4204301208496,26.792770208740233C79.4204301208496,26.792770208740233,79.4204301208496,26.792770208740233,79.4204301208496,26.792770208740233ZM87.91863012084961,12.083040208740234C87.91863012084961,12.474460208740235,87.84153012084961,12.840140208740234,87.68693012084961,13.180080208740234C87.54263012084961,13.520010208740235,87.34183012084961,13.818750208740234,87.08433012084961,14.076260208740234C86.8268301208496,14.323480208740234,86.5228301208496,14.524360208740234,86.17263012084962,14.678870208740236C85.83263012084961,14.823090208740235,85.46703012084961,14.895190208740235,85.07563012084961,14.895190208740235C84.6841301208496,14.895190208740235,84.31333012084961,14.823090208740235,83.96313012084961,14.678870208740236C83.62313012084961,14.524360208740234,83.3245301208496,14.323480208740234,83.0669301208496,14.076260208740234C82.81973012084961,13.818750208740234,82.61893012084961,13.520010208740235,82.46433012084961,13.180080208740234C82.32013012084961,12.840140208740234,82.24793012084962,12.474460208740235,82.24793012084962,12.083040208740234C82.24793012084962,11.701900208740234,82.32013012084961,11.341350208740234,82.46433012084961,11.001420208740235C82.61893012084961,10.651200208740235,82.81973012084961,10.352470208740234,83.0669301208496,10.105247208740234C83.3245301208496,9.847724208740235,83.62313012084961,9.646854208740235,83.96313012084961,9.502642208740234C84.31333012084961,9.348127308740235,84.6841301208496,9.270870208740234,85.07563012084961,9.270870208740234C85.46703012084961,9.270870208740234,85.83263012084961,9.348127308740235,86.17263012084962,9.502642208740234C86.5228301208496,9.646854208740235,86.8268301208496,9.847724208740235,87.08433012084961,10.105247208740234C87.34183012084961,10.352470208740234,87.54263012084961,10.651200208740235,87.68693012084961,11.001420208740235C87.84153012084961,11.341350208740234,87.91863012084961,11.701900208740234,87.91863012084961,12.083040208740234C87.91863012084961,12.083040208740234,87.91863012084961,12.083040208740234,87.91863012084961,12.083040208740234ZM87.19243012084961,33.12797020874024C87.19243012084961,33.12797020874024,82.9432301208496,33.12797020874024,82.9432301208496,33.12797020874024C82.9432301208496,33.12797020874024,82.9432301208496,16.579390208740236,82.9432301208496,16.579390208740236C82.9432301208496,16.579390208740236,87.19243012084961,16.579390208740236,87.19243012084961,16.579390208740236C87.19243012084961,16.579390208740236,87.19243012084961,33.12797020874024,87.19243012084961,33.12797020874024C87.19243012084961,33.12797020874024,87.19243012084961,33.12797020874024,87.19243012084961,33.12797020874024ZM99.50713012084961,33.12797020874024C99.50713012084961,33.12797020874024,89.8656301208496,33.12797020874024,89.8656301208496,33.12797020874024C89.8656301208496,33.12797020874024,89.8656301208496,28.925070208740234,89.8656301208496,28.925070208740234C89.8656301208496,28.925070208740234,99.50713012084961,28.925070208740234,99.50713012084961,28.925070208740234C99.79573012084961,28.925070208740234,100.0428301208496,28.822070208740236,100.24893012084961,28.616070208740233C100.45493012084961,28.410070208740233,100.55783012084962,28.162870208740234,100.55783012084962,27.874370208740235C100.55783012084962,27.575670208740235,100.45493012084961,27.379970208740236,100.24893012084961,27.287270208740235C100.0428301208496,27.194570208740235,99.79573012084961,27.148170208740236,99.50713012084961,27.148170208740236C99.50713012084961,27.148170208740236,95.1190301208496,27.148170208740236,95.1190301208496,27.148170208740236C94.38773012084961,27.148170208740236,93.70273012084961,27.009070208740233,93.06393012084962,26.730970208740235C92.42533012084961,26.452870208740233,91.8691301208496,26.076870208740235,91.39523012084962,25.602970208740235C90.9214301208496,25.118970208740237,90.5455301208496,24.557470208740234,90.2672301208496,23.918870208740234C89.99943012084961,23.280170208740234,89.8656301208496,22.595170208740235,89.8656301208496,21.863770208740235C89.8656301208496,21.132370208740234,89.99943012084961,20.447370208740235,90.2672301208496,19.808770208740235C90.5455301208496,19.170080208740234,90.9214301208496,18.613840208740235,91.39523012084962,18.139990208740237C91.8691301208496,17.666150208740234,92.42533012084961,17.295310208740233,93.06393012084962,17.027490208740232C93.70273012084961,16.749370208740235,94.38773012084961,16.610300208740234,95.1190301208496,16.610300208740234C95.1190301208496,16.610300208740234,103.6636301208496,16.610300208740234,103.6636301208496,16.610300208740234C103.6636301208496,16.610300208740234,103.6636301208496,20.813070208740236,103.6636301208496,20.813070208740236C103.6636301208496,20.813070208740236,95.1190301208496,20.813070208740236,95.1190301208496,20.813070208740236C94.8306301208496,20.813070208740236,94.58343012084961,20.916070208740237,94.3773301208496,21.122070208740233C94.1713301208496,21.328170208740232,94.06833012084961,21.575370208740235,94.06833012084961,21.863770208740235C94.06833012084961,22.162470208740235,94.1713301208496,22.420070208740235,94.3773301208496,22.636370208740235C94.58343012084961,22.842370208740235,94.8306301208496,22.945370208740236,95.1190301208496,22.945370208740236C95.1190301208496,22.945370208740236,99.50713012084961,22.945370208740236,99.50713012084961,22.945370208740236C100.22833012084962,22.945370208740236,100.90813012084962,23.068970208740232,101.54683012084962,23.316270208740235C102.18543012084962,23.553170208740234,102.7416301208496,23.887970208740235,103.21563012084961,24.320570208740236C103.6893301208496,24.753270208740233,104.06543012084961,25.273470208740235,104.3435301208496,25.881270208740233C104.6216301208496,26.488870208740234,104.76073012084962,27.153270208740235,104.76073012084962,27.874370208740235C104.76073012084962,28.605770208740235,104.6216301208496,29.290870208740234,104.3435301208496,29.929470208740234C104.06543012084961,30.557770208740234,103.6893301208496,31.114070208740234,103.21563012084961,31.598170208740235C102.7416301208496,32.072070208740236,102.18543012084962,32.44807020874023,101.54683012084962,32.726170208740236C100.90813012084962,32.99397020874024,100.22833012084962,33.12797020874024,99.50713012084961,33.12797020874024C99.50713012084961,33.12797020874024,99.50713012084961,33.12797020874024,99.50713012084961,33.12797020874024ZM111.23483012084961,33.12797020874024C111.23483012084961,33.12797020874024,107.01653012084961,33.12797020874024,107.01653012084961,33.12797020874024C107.01653012084961,33.12797020874024,107.01653012084961,9.997087208740234,107.01653012084961,9.997087208740234C107.01653012084961,9.997087208740234,111.23483012084961,9.997087208740234,111.23483012084961,9.997087208740234C111.23483012084961,9.997087208740234,111.23483012084961,17.305620208740237,111.23483012084961,17.305620208740237C111.73963012084961,16.924480208740235,112.25983012084961,16.656650208740235,112.7955301208496,16.502130208740233C113.33113012084961,16.337320208740234,113.87703012084961,16.254920208740234,114.4333301208496,16.254920208740234C115.4530301208496,16.254920208740234,116.4110301208496,16.450630208740236,117.30723012084961,16.842060208740236C118.20343012084962,17.223200208740234,118.9812301208496,17.753710208740234,119.6404301208496,18.433570208740235C120.3100301208496,19.103130208740232,120.83533012084962,19.891170208740235,121.21643012084961,20.797670208740236C121.60793012084962,21.693870208740236,121.8036301208496,22.651770208740235,121.8036301208496,23.671570208740235C121.8036301208496,23.671570208740235,121.8036301208496,33.12797020874024,121.8036301208496,33.12797020874024C121.8036301208496,33.12797020874024,117.55443012084962,33.12797020874024,117.55443012084962,33.12797020874024C117.55443012084962,33.12797020874024,117.55443012084962,23.671570208740235,117.55443012084962,23.671570208740235C117.55443012084962,23.671570208740235,117.58543012084961,23.671570208740235,117.58543012084961,23.671570208740235C117.58543012084961,23.238970208740234,117.50303012084962,22.832070208740234,117.3382301208496,22.450970208740234C117.17333012084961,22.059470208740237,116.94663012084962,21.719570208740237,116.65833012084961,21.431170208740234C116.3699301208496,21.142770208740234,116.0351301208496,20.916070208740237,115.65403012084961,20.751270208740234C115.27283012084962,20.586470208740234,114.86583012084961,20.504070208740234,114.4333301208496,20.504070208740234C113.9903301208496,20.504070208740234,113.57323012084962,20.586470208740234,113.18173012084961,20.751270208740234C112.7903301208496,20.916070208740237,112.4504301208496,21.142770208740234,112.1618301208496,21.431170208740234C111.87353012084961,21.719570208740237,111.64693012084962,22.059470208740237,111.4821301208496,22.450970208740234C111.31733012084962,22.832070208740234,111.23483012084961,23.238970208740234,111.23483012084961,23.671570208740235C111.23483012084961,23.671570208740235,111.23483012084961,33.12797020874024,111.23483012084961,33.12797020874024C111.23483012084961,33.12797020874024,111.23483012084961,33.12797020874024,111.23483012084961,33.12797020874024ZM131.39893012084963,29.079570208740236C131.5637301208496,29.131170208740233,131.72863012084963,29.167170208740234,131.89343012084962,29.187670208740233C132.0582301208496,29.198170208740233,132.22303012084961,29.203270208740236,132.3877301208496,29.203270208740236C132.7998301208496,29.203270208740236,133.19653012084962,29.146570208740233,133.57753012084962,29.033270208740234C133.9586301208496,28.919870208740235,134.3141301208496,28.760370208740234,134.64373012084963,28.554270208740235C134.98363012084963,28.337970208740234,135.2824301208496,28.080470208740234,135.5399301208496,27.781670208740234C135.80783012084962,27.472670208740233,136.0240301208496,27.132770208740233,136.18883012084962,26.761970208740234C136.18883012084962,26.761970208740234,139.27913012084963,29.867570208740233,139.27913012084963,29.867570208740233C138.8877301208496,30.423970208740233,138.43453012084962,30.923470208740234,137.9194301208496,31.366370208740236C137.4146301208496,31.809470208740233,136.86363012084962,32.18537020874024,136.2661301208496,32.49427020874023C135.6789301208496,32.80337020874023,135.0557301208496,33.03527020874023,134.39643012084963,33.18967020874024C133.7475301208496,33.35447020874024,133.0779301208496,33.43687020874023,132.3877301208496,33.43687020874023C131.2238301208496,33.43687020874023,130.1268301208496,33.22067020874023,129.0967301208496,32.787970208740234C128.07693012084962,32.35537020874023,127.1807301208496,31.752770208740234,126.4081301208496,30.980170208740233C125.64583012084961,30.207570208740233,125.04323012084961,29.290870208740234,124.6003301208496,28.229670208740234C124.15733012084961,27.158470208740233,123.93603012084961,25.984170208740235,123.93603012084961,24.706870208740234C123.93603012084961,23.398670208740235,124.15733012084961,22.203670208740235,124.6003301208496,21.122070208740233C125.04323012084961,20.040470208740235,125.64583012084961,19.118570208740234,126.4081301208496,18.356310208740233C127.1807301208496,17.594050208740235,128.07693012084962,17.001740208740234,129.0967301208496,16.579390208740236C130.1268301208496,16.157060208740234,131.2238301208496,15.945890208740234,132.3877301208496,15.945890208740234C133.0779301208496,15.945890208740234,133.7527301208496,16.028290208740234,134.4120301208496,16.193110208740237C135.0712301208496,16.357930208740235,135.6943301208496,16.594850208740233,136.2815301208496,16.903870208740233C136.87903012084962,17.212910208740233,137.4352301208496,17.594050208740235,137.95033012084963,18.047290208740236C138.46533012084961,18.490220208740233,138.9185301208496,18.989820208740234,139.3101301208496,19.546070208740232C139.3101301208496,19.546070208740232,131.39893012084963,29.079570208740236,131.39893012084963,29.079570208740236C131.39893012084963,29.079570208740236,131.39893012084963,29.079570208740236,131.39893012084963,29.079570208740236ZM133.56213012084962,20.380470208740235C133.3664301208496,20.308370208740236,133.1706301208496,20.261970208740234,132.9749301208496,20.241370208740236C132.7895301208496,20.220770208740234,132.5938301208496,20.210470208740233,132.3877301208496,20.210470208740233C131.8110301208496,20.210470208740233,131.26513012084962,20.318670208740237,130.7500301208496,20.534970208740233C130.2452301208496,20.740970208740237,129.8023301208496,21.039670208740233,129.42113012084963,21.431170208740234C129.0503301208496,21.822570208740235,128.75673012084962,22.296470208740235,128.5403301208496,22.852670208740236C128.3241301208496,23.398670208740235,128.2160301208496,24.016670208740234,128.2160301208496,24.706870208740234C128.2160301208496,24.861370208740233,128.2211301208496,25.036470208740234,128.2314301208496,25.232170208740236C128.2520301208496,25.427870208740234,128.2777301208496,25.628870208740235,128.3087301208496,25.834770208740235C128.34983012084962,26.030470208740233,128.39623012084962,26.221070208740233,128.4477301208496,26.406570208740234C128.4992301208496,26.591970208740236,128.5662301208496,26.756770208740235,128.6486301208496,26.900870208740233C128.6486301208496,26.900870208740233,133.56213012084962,20.380470208740235,133.56213012084962,20.380470208740235C133.56213012084962,20.380470208740235,133.56213012084962,20.380470208740235,133.56213012084962,20.380470208740235ZM145.69153012084962,33.12797020874024C145.69153012084962,33.12797020874024,141.4423301208496,33.12797020874024,141.4423301208496,33.12797020874024C141.4423301208496,33.12797020874024,141.4423301208496,9.997087208740234,141.4423301208496,9.997087208740234C141.4423301208496,9.997087208740234,145.69153012084962,9.997087208740234,145.69153012084962,9.997087208740234C145.69153012084962,9.997087208740234,145.69153012084962,33.12797020874024,145.69153012084962,33.12797020874024C145.69153012084962,33.12797020874024,145.69153012084962,33.12797020874024,145.69153012084962,33.12797020874024ZM153.17003012084962,39.432070208740235C153.17003012084962,39.432070208740235,148.92083012084962,39.432070208740235,148.92083012084962,39.432070208740235C148.92083012084962,39.432070208740235,148.92083012084962,16.579390208740236,148.92083012084962,16.579390208740236C148.92083012084962,16.579390208740236,149.94063012084962,16.579390208740236,149.94063012084962,16.579390208740236C149.94063012084962,16.579390208740236,151.6248301208496,18.572630208740236,151.6248301208496,18.572630208740236C152.0059301208496,18.212090208740236,152.4231301208496,17.872160208740233,152.87633012084962,17.552840208740236C153.3297301208496,17.233500208740235,153.7983301208496,16.960530208740234,154.28253012084963,16.733910208740234C154.7769301208496,16.496990208740236,155.28683012084963,16.311580208740235,155.81213012084962,16.177660208740235C156.3375301208496,16.043750208740235,156.86793012084962,15.976790208740233,157.4035301208496,15.976790208740233C158.5675301208496,15.976790208740233,159.6595301208496,16.187950208740233,160.67953012084962,16.610300208740234C161.7095301208496,17.022340208740236,162.6055301208496,17.609490208740233,163.3675301208496,18.371760208740234C164.1405301208496,19.134030208740235,164.7485301208496,20.055970208740234,165.19153012084962,21.137570208740236C165.6345301208496,22.208870208740237,165.8555301208496,23.398670208740235,165.8555301208496,24.706870208740234C165.8555301208496,26.066670208740234,165.6345301208496,27.292470208740234,165.19153012084962,28.384270208740233C164.7485301208496,29.465970208740234,164.1405301208496,30.387770208740235,163.3675301208496,31.150070208740235C162.6055301208496,31.902170208740234,161.7095301208496,32.47887020874023,160.67953012084962,32.880670208740234C159.6595301208496,33.28237020874023,158.5675301208496,33.48327020874024,157.4035301208496,33.48327020874024C157.0328301208496,33.48327020874024,156.6620301208496,33.44207020874023,156.2912301208496,33.35957020874024C155.9305301208496,33.27717020874023,155.5700301208496,33.16907020874024,155.2095301208496,33.03527020874023C154.85933012084962,32.890970208740235,154.50903012084962,32.731270208740234,154.15883012084961,32.556170208740234C153.81893012084961,32.38107020874023,153.4892301208496,32.20077020874024,153.17003012084962,32.01537020874024C153.17003012084962,32.01537020874024,153.17003012084962,39.432070208740235,153.17003012084962,39.432070208740235C153.17003012084962,39.432070208740235,153.17003012084962,39.432070208740235,153.17003012084962,39.432070208740235ZM161.62153012084963,24.706870208740234C161.62153012084963,24.006370208740236,161.50853012084963,23.378070208740233,161.2815301208496,22.821770208740233C161.06553012084962,22.265470208740233,160.7665301208496,21.796870208740234,160.3855301208496,21.415670208740234C160.0045301208496,21.024270208740234,159.55653012084963,20.725570208740237,159.04153012084961,20.519470208740234C158.5265301208496,20.313470208740235,157.9805301208496,20.210470208740233,157.4035301208496,20.210470208740233C156.8268301208496,20.210470208740233,156.2808301208496,20.313470208740235,155.7658301208496,20.519470208740234C155.2611301208496,20.725570208740237,154.81813012084962,21.024270208740234,154.4369301208496,21.415670208740234C154.0558301208496,21.796870208740234,153.7519301208496,22.265470208740233,153.52533012084962,22.821770208740233C153.3089301208496,23.378070208740233,153.20083012084962,24.006370208740236,153.20083012084962,24.706870208740234C153.20083012084962,25.376470208740233,153.3089301208496,25.989370208740233,153.52533012084962,26.545570208740234C153.7519301208496,27.101870208740234,154.0558301208496,27.575670208740235,154.4369301208496,27.967070208740235C154.81813012084962,28.358570208740236,155.2611301208496,28.662370208740235,155.7658301208496,28.878770208740235C156.2808301208496,29.094970208740236,156.8268301208496,29.203270208740236,157.4035301208496,29.203270208740236C157.9805301208496,29.203270208740236,158.5265301208496,29.094970208740236,159.04153012084961,28.878770208740235C159.55653012084963,28.662370208740235,160.0045301208496,28.358570208740236,160.3855301208496,27.967070208740235C160.7665301208496,27.575670208740235,161.06553012084962,27.101870208740234,161.2815301208496,26.545570208740234C161.50853012084963,25.989370208740233,161.62153012084963,25.376470208740233,161.62153012084963,24.706870208740234C161.62153012084963,24.706870208740234,161.62153012084963,24.706870208740234,161.62153012084963,24.706870208740234Z" fill="#8896AB" fill-opacity="1"/></g></g></svg>