<svg width="134" height="58" viewBox="0 0 134 58" fill="none" xmlns="http://www.w3.org/2000/svg">
<path d="M59.5392 53.6452C74.0891 53.2784 90.2479 51.958 106.127 47.9967C111.093 46.7496 115.92 45.2825 120.467 42.8617C122.496 41.7613 124.524 40.5142 126.343 39.0471C127.672 37.9467 128.791 36.4796 129.631 34.9391C131.659 31.2712 131.1 27.53 128.022 24.8158C126.203 23.2019 124.174 21.8815 122.006 20.7811C115.85 17.5534 109.275 15.426 102.629 13.7388C97.1031 12.345 91.437 11.7581 85.771 11.3913C85.0715 11.318 84.3719 11.3913 83.8123 11.0979C83.3227 10.8778 82.7631 10.2176 82.7631 9.77748C82.833 9.19063 83.3926 8.60377 83.8823 8.31034C84.3719 8.01691 85.0715 8.16362 85.6311 8.16362C94.8647 8.09026 103.749 9.99756 112.353 13.1519C116.55 14.6924 120.677 16.5264 124.734 18.507C126.833 19.534 128.861 21.0745 130.54 22.7617C134.177 26.3563 134.947 31.1245 132.848 35.8927C131.799 38.3869 130.12 40.3675 128.162 42.0547C124.594 45.0624 120.537 46.9697 116.34 48.5102C108.155 51.5178 99.6913 53.2784 91.0873 54.5255C80.8744 56.066 70.6614 56.8729 60.3086 57.093C47.9971 57.3131 35.6857 56.6529 23.654 53.6452C18.8274 52.4715 14.2106 50.7109 9.94352 48.07C7.14545 46.3095 4.6272 44.3288 2.66856 41.5412C-0.479264 37.0664 -0.829021 32.3716 1.54933 27.3833C2.87841 24.5957 4.7671 22.3216 6.9356 20.2676C12.6716 14.8391 19.387 11.1713 26.522 8.23698C35.8256 4.4224 45.5488 2.36839 55.412 1.12131C68.0732 -0.49255 80.7345 -0.272478 93.3957 1.19467C104.308 2.44175 115.081 4.56911 125.434 8.67712C126.763 9.19063 128.022 9.85084 129.281 10.5111C130.19 10.9512 130.75 11.6114 130.4 12.7118C130.12 13.5187 129.211 13.8121 128.092 13.2253C121.586 10.1443 114.661 8.60377 107.736 7.06326C99.6214 5.30268 91.3671 4.34904 83.1128 3.76218C68.423 2.80853 53.8731 3.98225 39.603 7.65012C31.9083 9.48406 24.4934 12.345 17.5682 16.5264C14.0007 18.6537 10.643 21.1479 7.77502 24.3023C6.72574 25.476 5.74642 26.7964 4.907 28.1902C2.38875 32.5183 2.80846 36.8464 6.16613 40.4409C7.84497 42.2748 9.87356 43.8153 11.9721 45.2091C16.5889 48.2168 21.7653 49.7573 27.0816 50.8576C37.1547 52.985 47.4375 53.7186 59.5392 53.6452Z" fill="url(#paint0_linear_355_19171)"/>
<defs>
<linearGradient id="paint0_linear_355_19171" x1="67" y1="0" x2="67" y2="57.1318" gradientUnits="userSpaceOnUse">
<stop stop-color="#0AC3E3"/>
<stop offset="1" stop-color="#0B454F"/>
</linearGradient>
</defs>
</svg>
