<svg width="199" height="93" viewBox="0 0 199 93" fill="none" xmlns="http://www.w3.org/2000/svg">
<g filter="url(#filter0_b_355_19175)">
<rect width="198.768" height="92.0815" rx="4.09832" fill="white"/>
<rect x="0.256145" y="0.256145" width="198.256" height="91.5692" rx="3.84217" stroke="#EAECF0" stroke-width="0.512289"/>
<path d="M12.6209 16.239V15.3338H17.3771V16.239H15.5346V21.295H14.4634V16.239H12.6209ZM19.5492 21.3823C19.1126 21.3823 18.7342 21.2862 18.414 21.0941C18.0938 20.902 17.8455 20.6332 17.6689 20.2878C17.4942 19.9424 17.4069 19.5388 17.4069 19.077C17.4069 18.6151 17.4942 18.2105 17.6689 17.8632C17.8455 17.5158 18.0938 17.2461 18.414 17.054C18.7342 16.8619 19.1126 16.7658 19.5492 16.7658C19.9858 16.7658 20.3642 16.8619 20.6844 17.054C21.0046 17.2461 21.252 17.5158 21.4266 17.8632C21.6032 18.2105 21.6915 18.6151 21.6915 19.077C21.6915 19.5388 21.6032 19.9424 21.4266 20.2878C21.252 20.6332 21.0046 20.902 20.6844 21.0941C20.3642 21.2862 19.9858 21.3823 19.5492 21.3823ZM19.555 20.5382C19.7918 20.5382 19.9897 20.4732 20.1488 20.3431C20.3079 20.2112 20.4263 20.0346 20.5039 19.8134C20.5835 19.5922 20.6233 19.3457 20.6233 19.0741C20.6233 18.8005 20.5835 18.553 20.5039 18.3318C20.4263 18.1087 20.3079 17.9311 20.1488 17.7992C19.9897 17.6672 19.7918 17.6012 19.555 17.6012C19.3125 17.6012 19.1107 17.6672 18.9496 17.7992C18.7905 17.9311 18.6711 18.1087 18.5916 18.3318C18.514 18.553 18.4751 18.8005 18.4751 19.0741C18.4751 19.3457 18.514 19.5922 18.5916 19.8134C18.6711 20.0346 18.7905 20.2112 18.9496 20.3431C19.1107 20.4732 19.3125 20.5382 19.555 20.5382ZM24.8184 16.8241V17.6391H22.2482V16.8241H24.8184ZM22.8827 15.7529H23.9364V19.9502C23.9364 20.0918 23.9578 20.2005 24.0004 20.2762C24.0451 20.3499 24.1033 20.4004 24.1751 20.4276C24.2469 20.4547 24.3264 20.4683 24.4138 20.4683C24.4797 20.4683 24.5399 20.4635 24.5942 20.4537C24.6505 20.444 24.6932 20.4353 24.7223 20.4276L24.8999 21.2513C24.8436 21.2707 24.7631 21.292 24.6583 21.3153C24.5554 21.3386 24.4293 21.3522 24.2799 21.3561C24.016 21.3638 23.7783 21.3241 23.5667 21.2367C23.3552 21.1475 23.1874 21.0097 23.0632 20.8234C22.9409 20.6371 22.8808 20.4043 22.8827 20.1248V15.7529ZM26.9861 21.3852C26.7028 21.3852 26.4476 21.3347 26.2206 21.2338C25.9955 21.131 25.817 20.9796 25.685 20.7798C25.555 20.5799 25.49 20.3334 25.49 20.0404C25.49 19.7882 25.5366 19.5796 25.6297 19.4146C25.7229 19.2497 25.85 19.1177 26.011 19.0188C26.1721 18.9198 26.3535 18.8451 26.5553 18.7946C26.7591 18.7422 26.9696 18.7044 27.187 18.6811C27.4489 18.6539 27.6614 18.6297 27.8244 18.6083C27.9874 18.5851 28.1058 18.5501 28.1795 18.5036C28.2552 18.455 28.2931 18.3803 28.2931 18.2794V18.262C28.2931 18.0427 28.228 17.8729 28.098 17.7526C27.968 17.6323 27.7808 17.5721 27.5363 17.5721C27.2782 17.5721 27.0735 17.6284 26.9221 17.7409C26.7727 17.8535 26.6718 17.9864 26.6194 18.1397L25.6356 18C25.7132 17.7283 25.8412 17.5013 26.0198 17.3189C26.1983 17.1345 26.4166 16.9968 26.6747 16.9056C26.9328 16.8124 27.218 16.7658 27.5304 16.7658C27.7458 16.7658 27.9603 16.7911 28.1737 16.8415C28.3872 16.892 28.5822 16.9754 28.7588 17.0918C28.9354 17.2063 29.077 17.3625 29.1837 17.5605C29.2924 17.7584 29.3467 18.0058 29.3467 18.3027V21.295H28.3338V20.6808H28.2989C28.2348 20.805 28.1446 20.9214 28.0282 21.0301C27.9137 21.1368 27.7691 21.2232 27.5945 21.2891C27.4218 21.3532 27.219 21.3852 26.9861 21.3852ZM27.2597 20.6109C27.4713 20.6109 27.6546 20.5692 27.8099 20.4858C27.9651 20.4004 28.0844 20.2878 28.1679 20.1481C28.2533 20.0084 28.296 19.8561 28.296 19.6911V19.1643C28.263 19.1915 28.2067 19.2167 28.1271 19.24C28.0495 19.2633 27.9622 19.2836 27.8652 19.3011C27.7681 19.3186 27.6721 19.3341 27.577 19.3477C27.4819 19.3613 27.3995 19.3729 27.3296 19.3826C27.1724 19.4039 27.0317 19.4389 26.9075 19.4874C26.7834 19.5359 26.6854 19.6038 26.6136 19.6911C26.5418 19.7765 26.5059 19.8871 26.5059 20.023C26.5059 20.217 26.5767 20.3635 26.7183 20.4625C26.86 20.5614 27.0405 20.6109 27.2597 20.6109ZM31.4599 15.3338V21.295H30.4062V15.3338H31.4599ZM36.5268 21.3823C36.0805 21.3823 35.6972 21.2843 35.3771 21.0883C35.0588 20.8923 34.8133 20.6216 34.6406 20.2762C34.4699 19.9288 34.3845 19.5291 34.3845 19.077C34.3845 18.6229 34.4718 18.2222 34.6465 17.8748C34.8211 17.5255 35.0675 17.2539 35.3858 17.0598C35.706 16.8638 36.0844 16.7658 36.521 16.7658C36.8838 16.7658 37.205 16.8328 37.4844 16.9667C37.7658 17.0986 37.9899 17.2859 38.1568 17.5285C38.3237 17.7691 38.4188 18.0505 38.4421 18.3726H37.4349C37.3942 18.1572 37.2972 17.9777 37.1439 17.8341C36.9925 17.6886 36.7897 17.6158 36.5355 17.6158C36.3201 17.6158 36.1309 17.674 35.9679 17.7904C35.8049 17.9049 35.6778 18.0699 35.5866 18.2853C35.4974 18.5006 35.4527 18.7587 35.4527 19.0595C35.4527 19.3642 35.4974 19.6261 35.5866 19.8454C35.6759 20.0627 35.8011 20.2306 35.9621 20.349C36.1251 20.4654 36.3163 20.5236 36.5355 20.5236C36.6908 20.5236 36.8295 20.4945 36.9518 20.4363C37.076 20.3761 37.1798 20.2898 37.2632 20.1772C37.3467 20.0647 37.4039 19.9279 37.4349 19.7668H38.4421C38.4168 20.0831 38.3237 20.3635 38.1626 20.608C38.0016 20.8506 37.7823 21.0407 37.5048 21.1785C37.2273 21.3144 36.9013 21.3823 36.5268 21.3823ZM42.1569 19.4146V16.8241H43.2106V21.295H42.1889V20.5003H42.1423C42.0414 20.7506 41.8755 20.9554 41.6446 21.1145C41.4156 21.2736 41.1333 21.3532 40.7976 21.3532C40.5046 21.3532 40.2455 21.2882 40.0204 21.1581C39.7972 21.0262 39.6226 20.8351 39.4965 20.5847C39.3703 20.3325 39.3073 20.0278 39.3073 19.6708V16.8241H40.361V19.5078C40.361 19.7911 40.4386 20.0162 40.5938 20.1831C40.7491 20.3499 40.9528 20.4334 41.2051 20.4334C41.3603 20.4334 41.5107 20.3955 41.6562 20.3199C41.8018 20.2442 41.9211 20.1316 42.0143 19.9822C42.1093 19.8309 42.1569 19.6417 42.1569 19.4146ZM47.8277 18.0058L46.8672 18.1106C46.84 18.0136 46.7925 17.9224 46.7246 17.837C46.6586 17.7516 46.5693 17.6827 46.4568 17.6303C46.3442 17.5779 46.2064 17.5517 46.0434 17.5517C45.8242 17.5517 45.6398 17.5993 45.4904 17.6944C45.3429 17.7895 45.2702 17.9127 45.2721 18.064C45.2702 18.194 45.3177 18.2998 45.4147 18.3813C45.5137 18.4628 45.6767 18.5298 45.9037 18.5821L46.6663 18.7451C47.0894 18.8364 47.4037 18.9809 47.6094 19.1788C47.8171 19.3768 47.9218 19.6358 47.9238 19.956C47.9218 20.2374 47.8394 20.4858 47.6764 20.7012C47.5153 20.9146 47.2912 21.0815 47.004 21.2018C46.7168 21.3221 46.3869 21.3823 46.0143 21.3823C45.4671 21.3823 45.0266 21.2678 44.6929 21.0388C44.3591 20.8079 44.1602 20.4867 44.0962 20.0754L45.1237 19.9764C45.1702 20.1782 45.2692 20.3305 45.4205 20.4334C45.5719 20.5362 45.7689 20.5876 46.0114 20.5876C46.2618 20.5876 46.4626 20.5362 46.614 20.4334C46.7672 20.3305 46.8439 20.2034 46.8439 20.0521C46.8439 19.924 46.7944 19.8182 46.6955 19.7348C46.5984 19.6514 46.4471 19.5873 46.2414 19.5427L45.4788 19.3826C45.0499 19.2933 44.7326 19.1429 44.527 18.9314C44.3213 18.718 44.2194 18.4483 44.2213 18.1223C44.2194 17.8467 44.2941 17.608 44.4455 17.4062C44.5988 17.2025 44.8112 17.0453 45.0829 16.9347C45.3565 16.8221 45.6718 16.7658 46.0289 16.7658C46.5528 16.7658 46.9652 16.8774 47.266 17.1006C47.5687 17.3237 47.7559 17.6255 47.8277 18.0058ZM51.0252 16.8241V17.6391H48.455V16.8241H51.0252ZM49.0895 15.7529H50.1432V19.9502C50.1432 20.0918 50.1646 20.2005 50.2073 20.2762C50.2519 20.3499 50.3101 20.4004 50.3819 20.4276C50.4537 20.4547 50.5333 20.4683 50.6206 20.4683C50.6866 20.4683 50.7467 20.4635 50.801 20.4537C50.8573 20.444 50.9 20.4353 50.9291 20.4276L51.1067 21.2513C51.0504 21.2707 50.9699 21.292 50.8651 21.3153C50.7622 21.3386 50.6361 21.3522 50.4867 21.3561C50.2228 21.3638 49.9851 21.3241 49.7736 21.2367C49.562 21.1475 49.3942 21.0097 49.27 20.8234C49.1477 20.6371 49.0876 20.4043 49.0895 20.1248V15.7529ZM53.8086 21.3823C53.372 21.3823 52.9936 21.2862 52.6734 21.0941C52.3532 20.902 52.1048 20.6332 51.9282 20.2878C51.7536 19.9424 51.6663 19.5388 51.6663 19.077C51.6663 18.6151 51.7536 18.2105 51.9282 17.8632C52.1048 17.5158 52.3532 17.2461 52.6734 17.054C52.9936 16.8619 53.372 16.7658 53.8086 16.7658C54.2452 16.7658 54.6236 16.8619 54.9437 17.054C55.2639 17.2461 55.5113 17.5158 55.686 17.8632C55.8626 18.2105 55.9509 18.6151 55.9509 19.077C55.9509 19.5388 55.8626 19.9424 55.686 20.2878C55.5113 20.6332 55.2639 20.902 54.9437 21.0941C54.6236 21.2862 54.2452 21.3823 53.8086 21.3823ZM53.8144 20.5382C54.0511 20.5382 54.2491 20.4732 54.4082 20.3431C54.5673 20.2112 54.6857 20.0346 54.7633 19.8134C54.8428 19.5922 54.8826 19.3457 54.8826 19.0741C54.8826 18.8005 54.8428 18.553 54.7633 18.3318C54.6857 18.1087 54.5673 17.9311 54.4082 17.7992C54.2491 17.6672 54.0511 17.6012 53.8144 17.6012C53.5718 17.6012 53.37 17.6672 53.2089 17.7992C53.0498 17.9311 52.9305 18.1087 52.8509 18.3318C52.7733 18.553 52.7345 18.8005 52.7345 19.0741C52.7345 19.3457 52.7733 19.5922 52.8509 19.8134C52.9305 20.0346 53.0498 20.2112 53.2089 20.3431C53.37 20.4732 53.5718 20.5382 53.8144 20.5382ZM56.8452 21.295V16.8241H57.8523V17.5838H57.9047C57.9978 17.3276 58.1521 17.1277 58.3675 16.9842C58.5829 16.8386 58.84 16.7658 59.1388 16.7658C59.4416 16.7658 59.6967 16.8396 59.9044 16.9871C60.1139 17.1326 60.2614 17.3315 60.3468 17.5838H60.3934C60.4923 17.3354 60.6592 17.1375 60.894 16.99C61.1308 16.8406 61.4112 16.7658 61.7352 16.7658C62.1466 16.7658 62.4823 16.8959 62.7423 17.1559C63.0024 17.4159 63.1324 17.7953 63.1324 18.294V21.295H62.0758V18.457C62.0758 18.1795 62.002 17.9767 61.8546 17.8486C61.7071 17.7186 61.5266 17.6536 61.3132 17.6536C61.059 17.6536 60.8601 17.7332 60.7165 17.8923C60.5748 18.0495 60.504 18.2542 60.504 18.5065V21.295H59.4707V18.4133C59.4707 18.1824 59.4008 17.9981 59.2611 17.8603C59.1233 17.7225 58.9429 17.6536 58.7197 17.6536C58.5683 17.6536 58.4306 17.6924 58.3064 17.7701C58.1822 17.8457 58.0832 17.9534 58.0095 18.0931C57.9357 18.2309 57.8989 18.392 57.8989 18.5763V21.295H56.8452ZM66.1806 21.3823C65.7324 21.3823 65.3453 21.2891 65.0193 21.1028C64.6952 20.9146 64.4458 20.6488 64.2712 20.3053C64.0966 19.9599 64.0092 19.5534 64.0092 19.0857C64.0092 18.6258 64.0966 18.2222 64.2712 17.8748C64.4478 17.5255 64.6942 17.2539 65.0105 17.0598C65.3268 16.8638 65.6984 16.7658 66.1253 16.7658C66.4009 16.7658 66.6609 16.8105 66.9054 16.8997C67.1519 16.9871 67.3692 17.1229 67.5574 17.3072C67.7476 17.4916 67.897 17.7264 68.0057 18.0116C68.1143 18.295 68.1687 18.6326 68.1687 19.0246V19.3477H64.5041V18.6375H67.1587C67.1567 18.4356 67.113 18.2561 67.0277 18.099C66.9423 17.9398 66.8229 17.8147 66.6696 17.7235C66.5183 17.6323 66.3417 17.5867 66.1399 17.5867C65.9245 17.5867 65.7353 17.6391 65.5723 17.7439C65.4093 17.8467 65.2822 17.9825 65.191 18.1514C65.1017 18.3182 65.0561 18.5016 65.0542 18.7015V19.3215C65.0542 19.5815 65.1017 19.8047 65.1968 19.9909C65.2919 20.1753 65.4248 20.3169 65.5956 20.4159C65.7663 20.5129 65.9662 20.5614 66.1952 20.5614C66.3485 20.5614 66.4872 20.5401 66.6114 20.4974C66.7356 20.4528 66.8433 20.3878 66.9345 20.3024C67.0257 20.217 67.0946 20.1113 67.1412 19.9851L68.125 20.0957C68.0629 20.3558 67.9445 20.5828 67.7699 20.7768C67.5972 20.969 67.376 21.1184 67.1063 21.2251C66.8365 21.3299 66.528 21.3823 66.1806 21.3823ZM69.0601 21.295V16.8241H70.0818V17.5692H70.1283C70.2098 17.3111 70.3495 17.1122 70.5475 16.9725C70.7473 16.8309 70.9754 16.76 71.2315 16.76C71.2897 16.76 71.3547 16.7629 71.4265 16.7688C71.5003 16.7726 71.5614 16.7794 71.6099 16.7891V17.7584C71.5653 17.7429 71.4944 17.7293 71.3974 17.7177C71.3023 17.7041 71.2102 17.6973 71.1209 17.6973C70.9288 17.6973 70.7561 17.739 70.6028 17.8224C70.4514 17.9039 70.3321 18.0175 70.2448 18.163C70.1574 18.3085 70.1138 18.4764 70.1138 18.6666V21.295H69.0601ZM75.8436 18.0058L74.883 18.1106C74.8558 18.0136 74.8083 17.9224 74.7404 17.837C74.6744 17.7516 74.5851 17.6827 74.4726 17.6303C74.3601 17.5779 74.2223 17.5517 74.0593 17.5517C73.84 17.5517 73.6557 17.5993 73.5062 17.6944C73.3588 17.7895 73.286 17.9127 73.2879 18.064C73.286 18.194 73.3335 18.2998 73.4306 18.3813C73.5295 18.4628 73.6925 18.5298 73.9196 18.5821L74.6822 18.7451C75.1052 18.8364 75.4196 18.9809 75.6253 19.1788C75.8329 19.3768 75.9377 19.6358 75.9396 19.956C75.9377 20.2374 75.8552 20.4858 75.6922 20.7012C75.5311 20.9146 75.307 21.0815 75.0198 21.2018C74.7326 21.3221 74.4027 21.3823 74.0302 21.3823C73.483 21.3823 73.0425 21.2678 72.7087 21.0388C72.3749 20.8079 72.176 20.4867 72.112 20.0754L73.1395 19.9764C73.1861 20.1782 73.285 20.3305 73.4364 20.4334C73.5877 20.5362 73.7847 20.5876 74.0273 20.5876C74.2776 20.5876 74.4784 20.5362 74.6298 20.4334C74.7831 20.3305 74.8597 20.2034 74.8597 20.0521C74.8597 19.924 74.8102 19.8182 74.7113 19.7348C74.6143 19.6514 74.4629 19.5873 74.2572 19.5427L73.4946 19.3826C73.0657 19.2933 72.7485 19.1429 72.5428 18.9314C72.3371 18.718 72.2352 18.4483 72.2372 18.1223C72.2352 17.8467 72.3099 17.608 72.4613 17.4062C72.6146 17.2025 72.8271 17.0453 73.0987 16.9347C73.3723 16.8221 73.6877 16.7658 74.0447 16.7658C74.5687 16.7658 74.981 16.8774 75.2818 17.1006C75.5845 17.3237 75.7718 17.6255 75.8436 18.0058Z" fill="#101828"/>
<path d="M181.35 17.8447C181.586 17.8447 181.777 17.6536 181.777 17.4178C181.777 17.1821 181.586 16.9909 181.35 16.9909C181.115 16.9909 180.924 17.1821 180.924 17.4178C180.924 17.6536 181.115 17.8447 181.35 17.8447Z" stroke="#98A2B3" stroke-width="0.853815" stroke-linecap="round" stroke-linejoin="round"/>
<path d="M181.35 14.8564C181.586 14.8564 181.777 14.6652 181.777 14.4295C181.777 14.1937 181.586 14.0026 181.35 14.0026C181.115 14.0026 180.924 14.1937 180.924 14.4295C180.924 14.6652 181.115 14.8564 181.35 14.8564Z" stroke="#98A2B3" stroke-width="0.853815" stroke-linecap="round" stroke-linejoin="round"/>
<path d="M181.35 20.8331C181.586 20.8331 181.777 20.642 181.777 20.4062C181.777 20.1704 181.586 19.9793 181.35 19.9793C181.115 19.9793 180.924 20.1704 180.924 20.4062C180.924 20.642 181.115 20.8331 181.35 20.8331Z" stroke="#98A2B3" stroke-width="0.853815" stroke-linecap="round" stroke-linejoin="round"/>
<path d="M13.4869 55.5899V53.8347L18.1433 49.27C18.5887 48.8203 18.9598 48.4208 19.2567 48.0715C19.5536 47.7222 19.7762 47.3838 19.9247 47.0564C20.0731 46.7289 20.1474 46.3796 20.1474 46.0085C20.1474 45.585 20.0513 45.2226 19.8592 44.9213C19.6671 44.6157 19.4029 44.3799 19.0667 44.214C18.7306 44.0481 18.3485 43.9652 17.9206 43.9652C17.4797 43.9652 17.0933 44.0568 16.7614 44.2402C16.4296 44.4192 16.172 44.6746 15.9886 45.0065C15.8096 45.3383 15.7201 45.7334 15.7201 46.1919H13.4083C13.4083 45.3405 13.6026 44.6004 13.9912 43.9717C14.3797 43.343 14.9146 42.8562 15.5957 42.5112C16.2812 42.1663 17.0671 41.9939 17.9534 41.9939C18.8528 41.9939 19.6431 42.162 20.3242 42.4981C21.0053 42.8343 21.5336 43.295 21.9091 43.88C22.2889 44.4651 22.4789 45.1331 22.4789 45.8841C22.4789 46.3862 22.3828 46.8795 22.1907 47.3642C21.9986 47.8488 21.6602 48.3858 21.1756 48.9753C20.6953 49.5647 20.0207 50.2785 19.1519 51.1168L16.84 53.468V53.5597H22.6819V55.5899H13.4869ZM27.3821 53.7561L27.2969 54.4765C27.2358 55.0267 27.1267 55.5855 26.9695 56.1531C26.8167 56.7251 26.6551 57.2512 26.4848 57.7315C26.3146 58.2117 26.177 58.5894 26.0722 58.8645H24.4743C24.5354 58.5982 24.6183 58.2358 24.7231 57.7773C24.8323 57.3189 24.9371 56.8037 25.0375 56.2317C25.1379 55.6598 25.2056 55.0791 25.2405 54.4896L25.2863 53.7561H27.3821ZM29.4004 53.1012V51.1692L35.0916 42.1772H36.7027V44.9279H35.7203L31.8891 50.9989V51.1037H39.8332V53.1012H29.4004ZM35.7989 55.5899V52.5118L35.8251 51.6473V42.1772H38.1173V55.5899H35.7989ZM41.5568 55.5899V53.8347L46.2133 49.27C46.6586 48.8203 47.0297 48.4208 47.3266 48.0715C47.6235 47.7222 47.8462 47.3838 47.9946 47.0564C48.1431 46.7289 48.2173 46.3796 48.2173 46.0085C48.2173 45.585 48.1212 45.2226 47.9291 44.9213C47.737 44.6157 47.4729 44.3799 47.1367 44.214C46.8005 44.0481 46.4185 43.9652 45.9906 43.9652C45.5496 43.9652 45.1632 44.0568 44.8314 44.2402C44.4996 44.4192 44.242 44.6746 44.0586 45.0065C43.8796 45.3383 43.7901 45.7334 43.7901 46.1919H41.4782C41.4782 45.3405 41.6725 44.6004 42.0611 43.9717C42.4497 43.343 42.9845 42.8562 43.6656 42.5112C44.3511 42.1663 45.137 41.9939 46.0233 41.9939C46.9228 41.9939 47.713 42.162 48.3941 42.4981C49.0752 42.8343 49.6035 43.295 49.979 43.88C50.3589 44.4651 50.5488 45.1331 50.5488 45.8841C50.5488 46.3862 50.4527 46.8795 50.2606 47.3642C50.0685 47.8488 49.7302 48.3858 49.2455 48.9753C48.7652 49.5647 48.0907 50.2785 47.2218 51.1168L44.91 53.468V53.5597H50.7518V55.5899H41.5568ZM57.6001 55.8453C56.5217 55.8453 55.5961 55.5724 54.8233 55.0267C54.0549 54.4765 53.4633 53.6841 53.0485 52.6493C52.6381 51.6102 52.4329 50.3593 52.4329 48.8967C52.4372 47.434 52.6446 46.1897 53.055 45.1636C53.4698 44.1332 54.0614 43.3474 54.8299 42.806C55.6027 42.2646 56.5261 41.9939 57.6001 41.9939C58.6742 41.9939 59.5976 42.2646 60.3704 42.806C61.1432 43.3474 61.7348 44.1332 62.1453 45.1636C62.56 46.194 62.7674 47.4384 62.7674 48.8967C62.7674 50.3637 62.56 51.6168 62.1453 52.6559C61.7348 53.6906 61.1432 54.4809 60.3704 55.0267C59.602 55.5724 58.6786 55.8453 57.6001 55.8453ZM57.6001 53.7954C58.4384 53.7954 59.0999 53.3828 59.5845 52.5576C60.0735 51.7281 60.318 50.5078 60.318 48.8967C60.318 47.8313 60.2067 46.9363 59.984 46.2115C59.7614 45.4867 59.447 44.941 59.041 44.5742C58.6349 44.2031 58.1546 44.0175 57.6001 44.0175C56.7662 44.0175 56.1069 44.4323 55.6223 45.2619C55.1377 46.0871 54.8932 47.2987 54.8888 48.8967C54.8844 49.9664 54.9914 50.8658 55.2097 51.5949C55.4324 52.3241 55.7467 52.8742 56.1528 53.2453C56.5588 53.6121 57.0413 53.7954 57.6001 53.7954Z" fill="#101828"/>
<path d="M17.4178 77.2749V71.2982M17.4178 71.2982L14.4294 74.2865M17.4178 71.2982L20.4062 74.2865" stroke="#12B76A" stroke-width="1.02458" stroke-linecap="round" stroke-linejoin="round"/>
<path d="M25.3513 75.7678V75.1311L27.6053 71.5705H28.107V72.5078H27.7886L26.1764 75.0598V75.1005H29.2658V75.7678H25.3513ZM27.8243 76.7866V75.5742L27.8294 75.2839V71.5705H28.5756V76.7866H27.8243ZM31.9694 76.8732C31.5669 76.8715 31.2231 76.7653 30.9379 76.5548C30.6526 76.3442 30.4344 76.0378 30.2833 75.6354C30.1322 75.233 30.0566 74.7482 30.0566 74.1811C30.0566 73.6157 30.1322 73.1326 30.2833 72.7319C30.4361 72.3312 30.6552 72.0256 30.9404 71.815C31.2274 71.6045 31.5703 71.4992 31.9694 71.4992C32.3684 71.4992 32.7105 71.6053 32.9958 71.8176C33.281 72.0281 33.4992 72.3337 33.6503 72.7345C33.8031 73.1335 33.8795 73.6157 33.8795 74.1811C33.8795 74.7499 33.804 75.2355 33.6529 75.6379C33.5017 76.0386 33.2836 76.3451 32.9983 76.5573C32.713 76.7679 32.3701 76.8732 31.9694 76.8732ZM31.9694 76.1931C32.3225 76.1931 32.5984 76.0208 32.7971 75.6761C32.9975 75.3314 33.0976 74.8331 33.0976 74.1811C33.0976 73.7481 33.0518 73.3822 32.9601 73.0834C32.8701 72.7828 32.7402 72.5553 32.5704 72.4008C32.4023 72.2446 32.202 72.1665 31.9694 72.1665C31.6179 72.1665 31.342 72.3397 31.1416 72.6861C30.9413 73.0324 30.8402 73.5308 30.8385 74.1811C30.8385 74.6158 30.8835 74.9834 30.9735 75.2839C31.0652 75.5827 31.1951 75.8094 31.3632 75.9639C31.5313 76.1167 31.7333 76.1931 31.9694 76.1931ZM37.5057 75.8086V75.5335C37.5057 75.3365 37.5464 75.1565 37.6279 74.9935C37.7111 74.8288 37.8317 74.6973 37.9896 74.5988C38.1492 74.4986 38.3419 74.4485 38.5677 74.4485C38.7986 74.4485 38.9922 74.4978 39.1484 74.5962C39.3046 74.6947 39.4226 74.8263 39.5024 74.991C39.5839 75.1557 39.6247 75.3365 39.6247 75.5335V75.8086C39.6247 76.0055 39.5839 76.1863 39.5024 76.351C39.4209 76.514 39.3012 76.6456 39.1433 76.7458C38.9871 76.8443 38.7952 76.8935 38.5677 76.8935C38.3385 76.8935 38.1449 76.8443 37.987 76.7458C37.8291 76.6456 37.7094 76.514 37.6279 76.351C37.5464 76.1863 37.5057 76.0055 37.5057 75.8086ZM38.0991 75.5335V75.8086C38.0991 75.9546 38.1339 76.087 38.2035 76.2059C38.2731 76.3247 38.3945 76.3842 38.5677 76.3842C38.7392 76.3842 38.8589 76.3247 38.9268 76.2059C38.9948 76.087 39.0287 75.9546 39.0287 75.8086V75.5335C39.0287 75.3875 38.9956 75.255 38.9294 75.1362C38.8649 75.0173 38.7443 74.9579 38.5677 74.9579C38.3979 74.9579 38.2774 75.0173 38.2061 75.1362C38.1348 75.255 38.0991 75.3875 38.0991 75.5335ZM34.8824 72.8236V72.5485C34.8824 72.3516 34.9231 72.1707 35.0046 72.006C35.0878 71.8413 35.2084 71.7098 35.3663 71.6113C35.5259 71.5128 35.7186 71.4636 35.9444 71.4636C36.1753 71.4636 36.3689 71.5128 36.5251 71.6113C36.6813 71.7098 36.7993 71.8413 36.8791 72.006C36.9589 72.1707 36.9988 72.3516 36.9988 72.5485V72.8236C36.9988 73.0206 36.9581 73.2014 36.8766 73.3661C36.7968 73.5291 36.6779 73.6607 36.52 73.7609C36.3638 73.8593 36.1719 73.9086 35.9444 73.9086C35.7135 73.9086 35.5191 73.8593 35.3612 73.7609C35.205 73.6607 35.0861 73.5291 35.0046 73.3661C34.9231 73.2014 34.8824 73.0206 34.8824 72.8236ZM35.4783 72.5485V72.8236C35.4783 72.9696 35.5123 73.1021 35.5802 73.2209C35.6498 73.3398 35.7712 73.3992 35.9444 73.3992C36.1142 73.3992 36.2331 73.3398 36.301 73.2209C36.3706 73.1021 36.4054 72.9696 36.4054 72.8236V72.5485C36.4054 72.4025 36.3723 72.2701 36.3061 72.1512C36.2399 72.0324 36.1193 71.9729 35.9444 71.9729C35.7746 71.9729 35.6541 72.0324 35.5828 72.1512C35.5131 72.2701 35.4783 72.4025 35.4783 72.5485ZM35.1243 76.7866L38.7103 71.5705H39.3191L35.733 76.7866H35.1243Z" fill="#027A48"/>
<path d="M48.5468 72.8745L47.1282 76.7865H46.3132L44.892 72.8745H45.7095L46.7003 75.8849H46.741L47.7292 72.8745H48.5468ZM52.1939 73.8296L51.5037 73.9518C51.4749 73.8635 51.429 73.7795 51.3662 73.6997C51.3051 73.6199 51.2219 73.5545 51.1166 73.5036C51.0113 73.4526 50.8797 73.4272 50.7218 73.4272C50.5062 73.4272 50.3262 73.4756 50.1819 73.5723C50.0376 73.6674 49.9654 73.7905 49.9654 73.9416C49.9654 74.0724 50.0138 74.1777 50.1106 74.2575C50.2074 74.3373 50.3636 74.4026 50.5792 74.4536L51.2006 74.5962C51.5606 74.6794 51.8289 74.8076 52.0055 74.9808C52.182 75.154 52.2703 75.3789 52.2703 75.6557C52.2703 75.89 52.2024 76.0989 52.0666 76.2822C51.9324 76.4639 51.7448 76.6065 51.5037 76.7101C51.2643 76.8137 50.9867 76.8655 50.6709 76.8655C50.2328 76.8655 49.8754 76.7721 49.5986 76.5853C49.3219 76.3969 49.1521 76.1294 49.0893 75.7831L49.8253 75.671C49.8712 75.8629 49.9654 76.008 50.108 76.1065C50.2506 76.2033 50.4366 76.2517 50.6658 76.2517C50.9154 76.2517 51.1149 76.1999 51.2643 76.0963C51.4137 75.991 51.4884 75.8629 51.4884 75.7117C51.4884 75.5895 51.4426 75.4868 51.3509 75.4036C51.2609 75.3204 51.1225 75.2575 50.9358 75.2151L50.2736 75.0699C49.9085 74.9867 49.6385 74.8543 49.4637 74.6726C49.2905 74.4909 49.2039 74.2609 49.2039 73.9824C49.2039 73.7515 49.2684 73.5494 49.3974 73.3762C49.5265 73.203 49.7048 73.0681 49.9323 72.9713C50.1598 72.8728 50.4204 72.8236 50.7142 72.8236C51.137 72.8236 51.4698 72.9153 51.7126 73.0986C51.9554 73.2803 52.1158 73.524 52.1939 73.8296ZM55.7672 71.5705V76.7865H55.0057V71.5705H55.7672ZM57.9302 76.8731C57.6823 76.8731 57.4581 76.8273 57.2578 76.7356C57.0574 76.6422 56.8987 76.5072 56.7815 76.3306C56.6661 76.1541 56.6083 75.9376 56.6083 75.6812C56.6083 75.4604 56.6508 75.2788 56.7357 75.1361C56.8206 74.9935 56.9352 74.8806 57.0795 74.7974C57.2238 74.7142 57.3851 74.6514 57.5634 74.6089C57.7417 74.5665 57.9234 74.5342 58.1085 74.5122C58.3428 74.485 58.5329 74.4629 58.679 74.4459C58.825 74.4273 58.9311 74.3975 58.9973 74.3568C59.0635 74.316 59.0966 74.2498 59.0966 74.1581V74.1403C59.0966 73.9179 59.0338 73.7455 58.9082 73.6233C58.7842 73.501 58.5992 73.4399 58.353 73.4399C58.0966 73.4399 57.8945 73.4968 57.7468 73.6106C57.6008 73.7226 57.4997 73.8474 57.4437 73.9849L56.728 73.8219C56.8129 73.5842 56.9369 73.3924 57.0999 73.2463C57.2646 73.0986 57.4539 72.9917 57.6678 72.9254C57.8818 72.8575 58.1068 72.8236 58.3428 72.8236C58.499 72.8236 58.6645 72.8422 58.8394 72.8796C59.016 72.9153 59.1807 72.9815 59.3335 73.0783C59.488 73.175 59.6145 73.3134 59.713 73.4934C59.8115 73.6717 59.8607 73.9034 59.8607 74.1887V76.7865H59.117V76.2517H59.0865C59.0372 76.3502 58.9634 76.4469 58.8649 76.542C58.7664 76.6371 58.6399 76.7161 58.4854 76.7789C58.3309 76.8417 58.1458 76.8731 57.9302 76.8731ZM58.0957 76.2619C58.3063 76.2619 58.4862 76.2203 58.6357 76.1371C58.7868 76.0539 58.9014 75.9452 58.9795 75.8111C59.0593 75.6752 59.0992 75.5301 59.0992 75.3756V74.8713C59.072 74.8984 59.0194 74.9239 58.9413 74.9477C58.8649 74.9697 58.7774 74.9893 58.679 75.0063C58.5805 75.0215 58.4845 75.036 58.3912 75.0495C58.2978 75.0614 58.2197 75.0716 58.1568 75.0801C58.0091 75.0988 57.8741 75.1302 57.7519 75.1743C57.6313 75.2185 57.5346 75.2822 57.4615 75.3654C57.3902 75.4469 57.3546 75.5555 57.3546 75.6914C57.3546 75.8798 57.4242 76.0225 57.5634 76.1192C57.7026 76.2143 57.8801 76.2619 58.0957 76.2619ZM63.8065 73.8296L63.1163 73.9518C63.0874 73.8635 63.0416 73.7795 62.9787 73.6997C62.9176 73.6199 62.8344 73.5545 62.7292 73.5036C62.6239 73.4526 62.4923 73.4272 62.3344 73.4272C62.1187 73.4272 61.9388 73.4756 61.7944 73.5723C61.6501 73.6674 61.578 73.7905 61.578 73.9416C61.578 74.0724 61.6263 74.1777 61.7231 74.2575C61.8199 74.3373 61.9761 74.4026 62.1918 74.4536L62.8132 74.5962C63.1732 74.6794 63.4414 74.8076 63.618 74.9808C63.7946 75.154 63.8829 75.3789 63.8829 75.6557C63.8829 75.89 63.815 76.0989 63.6791 76.2822C63.545 76.4639 63.3574 76.6065 63.1163 76.7101C62.8769 76.8137 62.5993 76.8655 62.2834 76.8655C61.8454 76.8655 61.488 76.7721 61.2112 76.5853C60.9344 76.3969 60.7646 76.1294 60.7018 75.7831L61.4379 75.671C61.4837 75.8629 61.578 76.008 61.7206 76.1065C61.8632 76.2033 62.0491 76.2517 62.2784 76.2517C62.5279 76.2517 62.7275 76.1999 62.8769 76.0963C63.0263 75.991 63.101 75.8629 63.101 75.7117C63.101 75.5895 63.0552 75.4868 62.9635 75.4036C62.8735 75.3204 62.7351 75.2575 62.5483 75.2151L61.8861 75.0699C61.5211 74.9867 61.2511 74.8543 61.0762 74.6726C60.903 74.4909 60.8164 74.2609 60.8164 73.9824C60.8164 73.7515 60.881 73.5494 61.01 73.3762C61.139 73.203 61.3173 73.0681 61.5448 72.9713C61.7724 72.8728 62.033 72.8236 62.3267 72.8236C62.7495 72.8236 63.0823 72.9153 63.3251 73.0986C63.5679 73.2803 63.7284 73.524 63.8065 73.8296ZM66.5463 72.8745V73.4858H64.4095V72.8745H66.5463ZM64.9825 71.9372H65.744V75.6379C65.744 75.7856 65.7661 75.8968 65.8103 75.9715C65.8544 76.0445 65.9113 76.0946 65.9809 76.1218C66.0522 76.1473 66.1295 76.16 66.2127 76.16C66.2738 76.16 66.3273 76.1557 66.3731 76.1473C66.419 76.1388 66.4546 76.132 66.4801 76.1269L66.6176 76.756C66.5735 76.7729 66.5107 76.7899 66.4292 76.8069C66.3477 76.8256 66.2458 76.8358 66.1235 76.8375C65.9232 76.8409 65.7364 76.8052 65.5632 76.7305C65.39 76.6558 65.2499 76.5403 65.143 76.3841C65.036 76.2279 64.9825 76.0318 64.9825 75.7958V71.9372ZM69.2868 76.7865V72.8745H70.0177V73.5112H70.0661C70.1476 73.2956 70.2809 73.1275 70.466 73.0069C70.6511 72.8847 70.8726 72.8236 71.1307 72.8236C71.3922 72.8236 71.6112 72.8847 71.7878 73.0069C71.9661 73.1292 72.0977 73.2973 72.1826 73.5112H72.2233C72.3167 73.3024 72.4653 73.136 72.669 73.012C72.8728 72.8864 73.1156 72.8236 73.3975 72.8236C73.7523 72.8236 74.0418 72.9348 74.2659 73.1572C74.4918 73.3796 74.6047 73.715 74.6047 74.1632V76.7865H73.8432V74.2345C73.8432 73.9697 73.771 73.7778 73.6267 73.6589C73.4824 73.5401 73.31 73.4807 73.1097 73.4807C72.8618 73.4807 72.669 73.5571 72.5315 73.7099C72.394 73.861 72.3252 74.0554 72.3252 74.2931V76.7865H71.5662V74.1862C71.5662 73.9739 71.5 73.8033 71.3676 73.6742C71.2351 73.5452 71.0628 73.4807 70.8506 73.4807C70.7062 73.4807 70.573 73.5189 70.4507 73.5953C70.3301 73.67 70.2325 73.7744 70.1578 73.9085C70.0848 74.0427 70.0483 74.198 70.0483 74.3746V76.7865H69.2868ZM77.2732 76.8655C76.9064 76.8655 76.5864 76.7814 76.313 76.6133C76.0396 76.4452 75.8274 76.2101 75.6763 75.9079C75.5252 75.6056 75.4496 75.2525 75.4496 74.8483C75.4496 74.4425 75.5252 74.0877 75.6763 73.7837C75.8274 73.4798 76.0396 73.2438 76.313 73.0757C76.5864 72.9076 76.9064 72.8236 77.2732 72.8236C77.6399 72.8236 77.96 72.9076 78.2334 73.0757C78.5067 73.2438 78.719 73.4798 78.8701 73.7837C79.0212 74.0877 79.0968 74.4425 79.0968 74.8483C79.0968 75.2525 79.0212 75.6056 78.8701 75.9079C78.719 76.2101 78.5067 76.4452 78.2334 76.6133C77.96 76.7814 77.6399 76.8655 77.2732 76.8655ZM77.2757 76.2262C77.5134 76.2262 77.7104 76.1634 77.8666 76.0377C78.0228 75.9121 78.1383 75.7448 78.213 75.536C78.2894 75.3272 78.3276 75.0971 78.3276 74.8458C78.3276 74.5962 78.2894 74.367 78.213 74.1581C78.1383 73.9476 78.0228 73.7786 77.8666 73.6513C77.7104 73.524 77.5134 73.4603 77.2757 73.4603C77.0363 73.4603 76.8377 73.524 76.6798 73.6513C76.5236 73.7786 76.4072 73.9476 76.3308 74.1581C76.2561 74.367 76.2188 74.5962 76.2188 74.8458C76.2188 75.0971 76.2561 75.3272 76.3308 75.536C76.4072 75.7448 76.5236 75.9121 76.6798 76.0377C76.8377 76.1634 77.0363 76.2262 77.2757 76.2262ZM80.7083 74.4638V76.7865H79.9468V72.8745H80.6778V73.5112H80.7261C80.8161 73.3041 80.9571 73.1377 81.1489 73.012C81.3425 72.8864 81.5861 72.8236 81.8799 72.8236C82.1465 72.8236 82.3799 72.8796 82.5803 72.9917C82.7806 73.102 82.936 73.2667 83.0464 73.4858C83.1567 73.7048 83.2119 73.9756 83.2119 74.2982V76.7865H82.4504V74.3899C82.4504 74.1063 82.3765 73.8848 82.2288 73.7252C82.0811 73.5639 81.8782 73.4832 81.6201 73.4832C81.4435 73.4832 81.2865 73.5214 81.1489 73.5978C81.0131 73.6742 80.9053 73.7863 80.8255 73.934C80.7474 74.08 80.7083 74.2566 80.7083 74.4638ZM86.0593 72.8745V73.4858H83.9225V72.8745H86.0593ZM84.4955 71.9372H85.2571V75.6379C85.2571 75.7856 85.2791 75.8968 85.3233 75.9715C85.3674 76.0445 85.4243 76.0946 85.4939 76.1218C85.5652 76.1473 85.6425 76.16 85.7257 76.16C85.7868 76.16 85.8403 76.1557 85.8862 76.1473C85.932 76.1388 85.9677 76.132 85.9931 76.1269L86.1307 76.756C86.0865 76.7729 86.0237 76.7899 85.9422 76.8069C85.8607 76.8256 85.7588 76.8358 85.6366 76.8375C85.4362 76.8409 85.2494 76.8052 85.0762 76.7305C84.903 76.6558 84.763 76.5403 84.656 76.3841C84.549 76.2279 84.4955 76.0318 84.4955 75.7958V71.9372ZM87.7473 74.4638V76.7865H86.9858V71.5705H87.7371V73.5112H87.7855C87.8772 73.3007 88.0173 73.1334 88.2057 73.0095C88.3942 72.8855 88.6404 72.8236 88.9443 72.8236C89.2126 72.8236 89.4469 72.8787 89.6473 72.9891C89.8493 73.0995 90.0055 73.2642 90.1159 73.4832C90.228 73.7005 90.284 73.9722 90.284 74.2982V76.7865H89.5225V74.3899C89.5225 74.103 89.4486 73.8805 89.3009 73.7226C89.1532 73.563 88.9477 73.4832 88.6846 73.4832C88.5046 73.4832 88.3433 73.5214 88.2006 73.5978C88.0597 73.6742 87.9485 73.7863 87.867 73.934C87.7872 74.08 87.7473 74.2566 87.7473 74.4638Z" fill="#475467"/>
<mask id="mask0_355_19175" style="mask-type:alpha" maskUnits="userSpaceOnUse" x="120" y="47" width="67" height="33">
<rect width="65.5731" height="32.7865" transform="translate(120.9 47)" fill="url(#paint0_linear_355_19175)"/>
</mask>
<g mask="url(#mask0_355_19175)">
<path d="M123.26 75.8295L120.9 79.7865H186.473V47L185.542 52.6529H184.3C183.969 53.595 183.282 55.4793 183.182 55.4793C183.083 55.4793 182.437 56.6098 182.127 57.1751L179.457 58.871L177.904 61.1321L175.42 58.871L174.116 57.1751L172.254 61.1321H170.329L168.714 57.1751C168.093 56.6098 166.826 55.4793 166.727 55.4793C166.628 55.4793 165.816 54.3487 165.423 53.7834H164.429L162.07 55.4793L160.021 57.1751L159.089 61.1321L156.295 62.828L154.867 64.5238L153.252 67.3503L151.7 71.0599H151.017L149.154 71.4132L147.353 67.3503L145.801 64.5238H144.869L143.255 62.828L140.957 64.5238H138.784L136.611 67.3503L134.437 70.742L132.823 74.1337L131.084 75.8295L128.724 74.1337L126.862 75.8295L124.999 77.5254L123.26 75.8295Z" fill="#ECFDF3"/>
</g>
<path d="M120.9 79.7865L123.26 75.8295L124.999 77.5254L126.862 75.8295L128.724 74.1337L131.084 75.8295L132.823 74.1337L134.437 70.742L136.611 67.3503L138.784 64.5238H140.957L143.255 62.828L144.869 64.5238H145.801L147.353 67.3503L149.154 71.4132L151.017 71.0599H151.7L153.252 67.3503L154.867 64.5238L156.295 62.828L159.089 61.1321L160.021 57.1751L162.07 55.4793L164.429 53.7834H165.423C165.816 54.3487 166.628 55.4793 166.727 55.4793C166.826 55.4793 168.093 56.6098 168.714 57.1751L170.329 61.1321H172.254L174.116 57.1751L175.42 58.871L177.904 61.1321L179.457 58.871L182.127 57.1751C182.437 56.6098 183.083 55.4793 183.182 55.4793C183.282 55.4793 183.969 53.595 184.3 52.6529H185.542L186.473 47" stroke="#12B76A" stroke-width="1.02458" stroke-linecap="round" stroke-linejoin="round"/>
<g opacity="0.2">
<rect x="159.322" y="49.0492" width="10.2458" height="10.2458" rx="5.12289" stroke="#12B76A" stroke-width="1.02458"/>
</g>
<rect x="161.883" y="51.6106" width="5.12289" height="5.12289" rx="2.56145" fill="white"/>
<rect x="161.883" y="51.6106" width="5.12289" height="5.12289" rx="2.56145" stroke="#12B76A" stroke-width="1.02458"/>
</g>
<defs>
<filter id="filter0_b_355_19175" x="-4.15833" y="-4.15833" width="207.085" height="100.398" filterUnits="userSpaceOnUse" color-interpolation-filters="sRGB">
<feFlood flood-opacity="0" result="BackgroundImageFix"/>
<feGaussianBlur in="BackgroundImageFix" stdDeviation="2.07917"/>
<feComposite in2="SourceAlpha" operator="in" result="effect1_backgroundBlur_355_19175"/>
<feBlend mode="normal" in="SourceGraphic" in2="effect1_backgroundBlur_355_19175" result="shape"/>
</filter>
<linearGradient id="paint0_linear_355_19175" x1="32.7865" y1="0" x2="32.7865" y2="32.7865" gradientUnits="userSpaceOnUse">
<stop/>
<stop offset="1" stop-opacity="0"/>
</linearGradient>
</defs>
</svg>
